<svg width="140" height="44" viewBox="0 0 140 44" fill="none" xmlns="http://www.w3.org/2000/svg">
<g clip-path="url(#clip0_51_2)">
<path d="M36.2641 7.16543C36.2641 4.6278 34.207 2.57053 31.6693 2.57051C29.1317 2.57051 27.0744 4.62779 27.0744 7.16543C27.0744 9.70306 29.1317 11.7602 31.6693 11.7602V14.3309L31.4844 14.3285C27.674 14.232 24.6028 11.1608 24.5062 7.35039L24.5039 7.16543C24.5039 3.20809 27.712 0 31.6693 0L31.8543 0.00234375C35.7261 0.100465 38.8348 3.26994 38.8348 7.16543L38.8324 7.35039C38.7343 11.2222 35.5648 14.3308 31.6693 14.3309V11.7602C34.207 11.7601 36.264 9.70305 36.2641 7.16543Z" fill="#D34329"/>
<path d="M31.668 9.41753C32.9117 9.41753 33.92 8.40929 33.92 7.16555C33.92 5.92182 32.9117 4.91357 31.668 4.91357C30.4243 4.91357 29.416 5.92182 29.416 7.16555C29.416 8.40929 30.4243 9.41753 31.668 9.41753Z" fill="#D34329"/>
<path d="M107.188 21.3149H102.852V9.34586H96.9287V5.20752H113.111V9.34586H107.188V21.3149Z" fill="white"/>
<path d="M95.0671 21.3149H90.7305V5.20752H95.0671V21.3149Z" fill="white"/>
<path d="M86.4074 21.3149H85.54C84.3753 21.3149 83.9045 20.8936 83.062 19.9519L74.7606 10.9814V21.3149H70.5479V7.04127C70.5479 5.82703 71.217 5.20752 72.5551 5.20752H73.5958C74.934 5.20752 75.4791 5.57922 76.2226 6.39698L83.8303 14.5993V5.20752H88.0182V19.6546C88.0182 20.7449 87.4729 21.3149 86.4074 21.3149Z" fill="white"/>
<path d="M60.6118 21.3148H57.0434C52.7811 21.3148 49.6836 18.4899 49.6836 14.3763V5.20752H54.0449V14.0542C54.0449 15.9127 55.3335 17.1517 57.1177 17.1517H60.5374C62.3216 17.1517 63.6102 15.9127 63.6102 14.0542V5.20752H67.9716V14.3763C67.9716 18.4899 64.874 21.3148 60.6118 21.3148Z" fill="white"/>
<path d="M139.802 37.4834H130.286V34.0389H139.802V37.4834ZM140 43.852H124.512V27.7446H139.975V31.883H128.849V39.6889H140V43.852Z" fill="white"/>
<path d="M123.026 43.852H117.327L110.735 37.0869C110.339 36.6408 110.141 36.2939 110.141 35.7735V35.377C110.141 34.9062 110.339 34.4602 110.711 34.0637L117.079 27.7446H122.63L114.874 35.5257L123.026 43.852ZM109.174 43.852H104.838V27.7446H109.174V43.852Z" fill="white"/>
<path d="M103.23 43.852H98.5218L97.1837 41.3739H89.6256L91.4594 37.9294H95.3499L92.5993 32.7503L86.7015 43.852H81.9189L90.146 28.9341C90.592 28.1411 91.2363 27.7446 92.0789 27.7446H93.0701C93.9126 27.7446 94.5569 28.1411 95.003 28.9341L103.23 43.852Z" fill="white"/>
<path d="M78.39 43.852H74.0534V31.883H68.1309V27.7446H84.3125V31.883H78.39V43.852Z" fill="white"/>
<path d="M61.6761 43.852H49.4346V39.6888H61.4779C62.0974 39.6888 62.5435 39.2924 62.5435 38.5985C62.5435 37.9046 62.0974 37.4834 61.4779 37.4834H54.3907C51.3922 37.4834 49.2363 35.5009 49.2363 32.6264C49.2363 29.7023 51.3922 27.7446 54.3907 27.7446H69.7491V31.883H54.5889C53.9694 31.883 53.5481 32.2547 53.5481 32.9485C53.5481 33.6176 53.9694 34.0389 54.5889 34.0389H61.6761C64.6994 34.0389 66.8553 36.0461 66.8553 38.9206C66.8553 41.8943 64.6994 43.852 61.6761 43.852Z" fill="white"/>
<path d="M20.2336 43.7499L16.4726 43.7501C6.93285 43.7501 0 37.4273 0 28.2205L0.0018111 6.90982C0.0018566 6.37443 0.435887 5.94043 0.971275 5.94043H8.79384C9.3293 5.94043 9.76335 6.37453 9.76331 6.90998L9.7615 27.4994C9.7615 31.6592 12.6456 34.4323 16.6389 34.4323L20.0672 34.4321C24.0606 34.4321 26.9447 31.659 26.9447 27.4992V18.544C26.9447 18.0086 27.3787 17.5746 27.9141 17.5746H35.7368C36.2722 17.5746 36.7062 18.0086 36.7062 18.544V28.2203C36.7062 37.4271 29.7733 43.7499 20.2336 43.7499Z" fill="#D34329"/>
</g>
<defs>
<clipPath id="clip0_51_2">
<rect width="140" height="44" fill="white"/>
</clipPath>
</defs>
</svg>
