<svg width="140" height="44" viewBox="0 0 140 44" fill="none" xmlns="http://www.w3.org/2000/svg">
<path d="M36.2641 7.16543C36.2641 4.6278 34.207 2.57053 31.6693 2.57051C29.1317 2.57051 27.0744 4.62779 27.0744 7.16543C27.0744 9.70306 29.1317 11.7602 31.6693 11.7602V14.3309L31.4844 14.3285C27.674 14.232 24.6028 11.1608 24.5062 7.35039L24.5039 7.16543C24.5039 3.20809 27.712 0 31.6693 0L31.8543 0.00234375C35.7261 0.100465 38.8348 3.26994 38.8348 7.16543L38.8324 7.35039C38.7343 11.2222 35.5648 14.3308 31.6693 14.3309V11.7602C34.207 11.7601 36.264 9.70305 36.2641 7.16543Z" fill="#D34329"/>
<circle cx="31.668" cy="7.16545" r="2.25198" fill="#D34329"/>
<path d="M107.188 21.3149H102.852V9.34587H96.929V5.20753H113.111V9.34587H107.188V21.3149Z" fill="#19191C"/>
<path d="M95.0666 21.3149H90.73V5.20753H95.0666V21.3149Z" fill="#19191C"/>
<path d="M86.407 21.3149H85.5396C84.3749 21.3149 83.9041 20.8936 83.0616 19.9519L74.7601 10.9814V21.3149H70.5474V7.04128C70.5474 5.82704 71.2165 5.20753 72.5546 5.20753H73.5954C74.9336 5.20753 75.4787 5.57923 76.2222 6.39699L83.8298 14.5993V5.20753H88.0177V19.6546C88.0177 20.7449 87.4725 21.3149 86.407 21.3149Z" fill="#19191C"/>
<path d="M60.612 21.3148H57.0436C52.7813 21.3148 49.6838 18.4899 49.6838 14.3763V5.20752H54.0451V14.0542C54.0451 15.9127 55.3337 17.1517 57.1179 17.1517H60.5376C62.3218 17.1517 63.6104 15.9127 63.6104 14.0542V5.20752H67.9718V14.3763C67.9718 18.4899 64.8742 21.3148 60.612 21.3148Z" fill="#19191C"/>
<path d="M139.802 37.4833H130.286V34.0388H139.802V37.4833ZM140 43.8519H124.512V27.7445H139.975V31.8829H128.849V39.6888H140V43.8519Z" fill="#19191C"/>
<path d="M123.026 43.8519H117.327L110.735 37.0868C110.339 36.6407 110.141 36.2938 110.141 35.7734V35.3769C110.141 34.9061 110.339 34.4601 110.711 34.0636L117.079 27.7445H122.63L114.874 35.5256L123.026 43.8519ZM109.174 43.8519H104.838V27.7445H109.174V43.8519Z" fill="#19191C"/>
<path d="M103.23 43.8519H98.5217L97.1836 41.3738H89.6255L91.4593 37.9293H95.3498L92.5992 32.7502L86.7014 43.8519H81.9188L90.1459 28.934C90.5919 28.141 91.2362 27.7445 92.0788 27.7445H93.07C93.9125 27.7445 94.5568 28.141 95.0029 28.934L103.23 43.8519Z" fill="#19191C"/>
<path d="M78.39 43.8519H74.0534V31.8829H68.1309V27.7445H84.3125V31.8829H78.39V43.8519Z" fill="#19191C"/>
<path d="M61.6765 43.8519H49.435V39.6887H61.4783C62.0978 39.6887 62.5439 39.2923 62.5439 38.5984C62.5439 37.9045 62.0978 37.4833 61.4783 37.4833H54.3911C51.3926 37.4833 49.2367 35.5008 49.2367 32.6263C49.2367 29.7022 51.3926 27.7445 54.3911 27.7445H69.7495V31.8829H54.5893C53.9698 31.8829 53.5485 32.2546 53.5485 32.9484C53.5485 33.6175 53.9698 34.0388 54.5893 34.0388H61.6765C64.6998 34.0388 66.8557 36.046 66.8557 38.9205C66.8557 41.8942 64.6998 43.8519 61.6765 43.8519Z" fill="#19191C"/>
<path d="M20.2337 43.7497L16.4727 43.7499C6.93298 43.7499 0.00013129 37.4271 0.00013129 28.2203L0.00194239 6.90961C0.00198789 6.37422 0.436018 5.94022 0.971406 5.94022H8.79397C9.32943 5.94022 9.76348 6.37432 9.76344 6.90977L9.76163 27.4992C9.76163 31.659 12.6457 34.4321 16.639 34.4321L20.0673 34.4319C24.0607 34.4319 26.9448 31.6588 26.9448 27.499V18.5438C26.9448 18.0084 27.3788 17.5744 27.9142 17.5744H35.7369C36.2723 17.5744 36.7063 18.0084 36.7063 18.5438V28.2201C36.7063 37.4269 29.7734 43.7497 20.2337 43.7497Z" fill="#D34329"/>
</svg>
