<svg width="28" height="28" viewBox="0 0 28 28" fill="none" xmlns="http://www.w3.org/2000/svg">
<path d="M1.68067 0.0896149C1.27731 0.20166 0.92437 0.408943 0.621849 0.711464C0.319328 1.01398 0.134454 1.36693 0.0672269 1.77029C0.022409 1.99438 0 6.10642 0 14.1064L0.0336134 26.14L0.235294 26.577C0.481793 27.0924 0.829132 27.4622 1.27731 27.6862L1.37815 27.7535C1.55742 27.8431 1.79272 27.8991 2.08403 27.9215C2.5098 27.9664 3.43978 27.9888 4.87395 27.9888H23.395C24.7843 27.9888 25.6919 27.9664 26.1176 27.9215C26.3866 27.8991 26.6106 27.8319 26.7899 27.7199L26.8908 27.6526C27.07 27.5406 27.2549 27.3725 27.4454 27.1484C27.6359 26.9243 27.7759 26.7115 27.8655 26.5098L27.9664 26.1736L28 14.0728C28 6.00558 27.9888 1.88233 27.9664 1.70306C27.8095 1.03079 27.4174 0.537794 26.7899 0.224068L26.3529 0.0223885H14.1849C8.89636 -2.09808e-05 5.52381 -0.00562286 4.06723 0.0055809C2.61064 0.0167847 1.81513 0.044796 1.68067 0.0896149ZM7.19328 4.69466C7.91036 4.8067 8.43698 5.18765 8.77311 5.83751C8.84034 5.99438 8.88515 6.12323 8.90756 6.22407C8.92997 6.32491 8.94118 6.52659 8.94118 6.82911C8.94118 7.13163 8.92997 7.33331 8.90756 7.43415C8.88515 7.53499 8.82913 7.66945 8.7395 7.83751C8.64986 8.00558 8.5042 8.18485 8.30252 8.37533C8.10084 8.5658 7.91036 8.70586 7.73109 8.7955C7.61905 8.86272 7.507 8.90194 7.39496 8.91314C7.28291 8.92435 7.08683 8.92995 6.80672 8.92995C6.52661 8.92995 6.33613 8.92435 6.23529 8.91314C6.13445 8.90194 6.01681 8.86272 5.88235 8.7955C5.43417 8.57141 5.10364 8.25208 4.89076 7.83751C4.67787 7.42295 4.61064 6.95796 4.68908 6.44255C4.76751 5.92715 4.98039 5.51258 5.32773 5.19886C5.67507 4.88513 6.15126 4.70586 6.7563 4.66104C6.77871 4.66104 6.92437 4.67225 7.19328 4.69466ZM19.7647 10.6106C20.6387 10.7899 21.3613 11.1764 21.9328 11.7703C22.5042 12.3641 22.902 13.1316 23.1261 14.0728C23.2157 14.4762 23.2773 15.0084 23.3109 15.6694C23.3445 16.3305 23.3613 17.6358 23.3613 19.5854V23.3501H19.2605V19.5182C19.2381 17.8151 19.2213 16.7339 19.2101 16.2745C19.1989 15.8151 19.1709 15.5182 19.1261 15.3837C18.9916 14.8683 18.7843 14.4818 18.5042 14.2241C18.2241 13.9664 17.8599 13.8207 17.4118 13.7871C16.9636 13.7535 16.5434 13.8431 16.1513 14.056C15.7591 14.2689 15.4734 14.5658 15.2941 14.9468C15.1821 15.1484 15.1148 15.3389 15.0924 15.5182C15.0476 15.7423 15.0252 16.1568 15.0252 16.7619L14.9916 23.3501H11.0252V10.8459H14.9916V12.6274L15.2269 12.2913C15.8095 11.4398 16.5826 10.8907 17.5462 10.6442C17.7927 10.577 18.1569 10.5378 18.6387 10.5266C19.1204 10.5154 19.4958 10.5434 19.7647 10.6106ZM8.7395 17.098V23.3501H4.63866V10.8459H8.7395V17.098Z" fill="#1F1F1F"/>
</svg>
