<svg width="21" height="21" viewBox="0 0 21 21" fill="none" xmlns="http://www.w3.org/2000/svg">
<path d="M9 1.5C9 0.703125 9.65625 0 10.5 0H13.5C14.2969 0 15 0.703125 15 1.5V4.5C15 5.34375 14.2969 6 13.5 6H10.5C9.65625 6 9 5.34375 9 4.5V1.5ZM3.84375 8.20312L6.46875 6.70312C7.17188 6.32812 8.10938 6.5625 8.48438 7.26562L9.98438 9.89062C10.4062 10.5938 10.1719 11.4844 9.46875 11.9062L6.84375 13.4062C6.14062 13.8281 5.20312 13.5938 4.82812 12.8906L3.32812 10.2656C2.90625 9.5625 3.14062 8.625 3.84375 8.20312ZM13.5 7.5H16.5C17.2969 7.5 18 8.20312 18 9V12C18 12.8438 17.2969 13.5 16.5 13.5H13.5C12.6562 13.5 12 12.8438 12 12V9C12 8.20312 12.6562 7.5 13.5 7.5ZM16.5 15H19.5C20.2969 15 21 15.7031 21 16.5V19.5C21 20.3438 20.2969 21 19.5 21H16.5C15.6562 21 15 20.3438 15 19.5V16.5C15 15.7031 15.6562 15 16.5 15ZM7.5 16.5C7.5 15.7031 8.15625 15 9 15H12C12.7969 15 13.5 15.7031 13.5 16.5V19.5C13.5 20.3438 12.7969 21 12 21H9C8.15625 21 7.5 20.3438 7.5 19.5V16.5ZM1.5 15H4.5C5.29688 15 6 15.7031 6 16.5V19.5C6 20.3438 5.29688 21 4.5 21H1.5C0.65625 21 0 20.3438 0 19.5V16.5C0 15.7031 0.65625 15 1.5 15Z" fill="white"/>
</svg>
