<svg width="28" height="21" viewBox="0 0 28 21" fill="none" xmlns="http://www.w3.org/2000/svg">
<path d="M13.5469 0C17.2969 0 20.3438 1.73438 22.5469 3.79688C24.75 5.8125 26.2031 8.25 26.9062 9.9375C27.0469 10.3125 27.0469 10.7344 26.9062 11.1094C26.2031 12.75 24.75 15.1875 22.5469 17.25C20.3438 19.3125 17.2969 21 13.5469 21C9.75 21 6.70312 19.3125 4.5 17.25C2.29688 15.1875 0.84375 12.75 0.140625 11.1094C0 10.7344 0 10.3125 0.140625 9.9375C0.84375 8.25 2.29688 5.8125 4.5 3.79688C6.70312 1.73438 9.75 0 13.5469 0ZM6.79688 10.5C6.79688 12.9375 8.0625 15.1406 10.1719 16.3594C12.2344 17.5781 14.8125 17.5781 16.9219 16.3594C18.9844 15.1406 20.2969 12.9375 20.2969 10.5C20.2969 8.10938 18.9844 5.90625 16.9219 4.6875C14.8125 3.46875 12.2344 3.46875 10.1719 4.6875C8.0625 5.90625 6.79688 8.10938 6.79688 10.5ZM13.5469 7.5C13.5469 7.17188 13.4531 6.89062 13.3594 6.5625C13.2656 6.32812 13.4531 6 13.7344 6C15.6094 6.09375 17.3438 7.40625 17.8594 9.375C18.5156 11.7656 17.1094 14.2031 14.6719 14.8594C12.2812 15.5156 9.79688 14.0625 9.1875 11.6719C9.09375 11.3438 9.04688 11.0156 9.04688 10.7344C9 10.4531 9.32812 10.2656 9.5625 10.3594C9.89062 10.4531 10.1719 10.5 10.5469 10.5C12.1875 10.5 13.5469 9.1875 13.5469 7.5Z" fill="white"/>
</svg>
