<svg width="30" height="24" viewBox="0 0 30 24" fill="none" xmlns="http://www.w3.org/2000/svg">
<path d="M27 12.2344L21.75 17.4844C19.125 20.1562 14.8125 20.1562 12.1875 17.4844C9.84375 15.1406 9.51562 11.4844 11.4375 8.76562L11.4844 8.71875C12 8.01562 12.9375 7.875 13.5938 8.34375C14.25 8.8125 14.4375 9.75 13.9219 10.4531L13.875 10.5C12.7969 12 12.9844 14.0625 14.2969 15.375C15.75 16.875 18.1406 16.875 19.6406 15.375L24.8906 10.125C26.3906 8.625 26.3906 6.23438 24.8906 4.78125C23.5781 3.46875 21.5156 3.28125 20.0156 4.35938L19.9688 4.40625C19.2656 4.92188 18.3281 4.73438 17.8594 4.07812C17.3906 3.42188 17.5312 2.48438 18.1875 1.96875L18.2812 1.92188C21 0 24.6562 0.328125 27 2.67188C29.6719 5.29688 29.6719 9.60938 27 12.2344ZM2.67188 11.1562L7.92188 5.85938C10.5938 3.23438 14.8594 3.23438 17.5312 5.85938C19.875 8.20312 20.1562 11.9062 18.2344 14.625L18.1875 14.6719C17.7188 15.375 16.7344 15.5156 16.0781 15.0469C15.4219 14.5781 15.2344 13.6406 15.75 12.9375L15.7969 12.8906C16.875 11.3438 16.6875 9.32812 15.375 8.01562C13.9219 6.51562 11.5312 6.51562 10.0312 8.01562L4.78125 13.2656C3.32812 14.7188 3.32812 17.1094 4.78125 18.6094C6.09375 19.9219 8.15625 20.1094 9.65625 19.0312L9.70312 18.9844C10.4062 18.4688 11.3438 18.6562 11.8125 19.3125C12.2812 19.9688 12.1406 20.9062 11.4844 21.4219L11.3906 21.4688C8.71875 23.3906 5.01562 23.0625 2.67188 20.7188C0 18.0938 0 13.7812 2.67188 11.1562Z" fill="white"/>
</svg>
