<svg width="22" height="22" viewBox="0 0 22 22" fill="none" xmlns="http://www.w3.org/2000/svg">
<path fill-rule="evenodd" clip-rule="evenodd" d="M10.6653 1.95557C11.0581 1.95557 11.3763 2.27377 11.3763 2.6665V4.42822C13.0501 5.16915 15.1775 5.80713 16.5911 5.80713H18.3685C18.7611 5.80713 19.0792 6.12553 19.0794 6.51807C19.0794 6.9108 18.7612 7.22998 18.3685 7.22998H17.6917L20.22 13.9722C20.3311 14.2683 20.2332 14.6022 19.9798 14.7915C19.0844 15.4604 18.0021 15.8217 16.888 15.8218C15.7738 15.8217 14.6906 15.4605 13.7952 14.7915C13.5421 14.6022 13.4441 14.2681 13.555 13.9722L16.0911 7.2085C14.6522 7.10381 12.8772 6.58176 11.3763 5.97119V17.9556H15.1097C15.5024 17.9556 15.8206 18.2738 15.8206 18.6665C15.8206 19.0592 15.5024 19.3774 15.1097 19.3774H6.221C5.82842 19.3773 5.51007 19.0591 5.51007 18.6665C5.51007 18.2739 5.82842 17.9557 6.221 17.9556H9.9544V5.71924C8.52913 6.35184 6.74205 6.94168 5.21612 7.1499L7.77471 13.9722C7.88577 14.2683 7.78786 14.6022 7.53448 14.7915C6.63912 15.4604 5.5568 15.8217 4.44268 15.8218C3.32846 15.8217 2.24532 15.4605 1.34991 14.7915C1.09684 14.6022 0.998738 14.2681 1.10968 13.9722L3.638 7.22998H2.36847C1.97573 7.22998 1.65753 6.9108 1.65753 6.51807C1.65776 6.12553 1.97587 5.80713 2.36847 5.80713H4.14581C5.73309 5.80713 8.22 5.00235 9.9544 4.15088V2.6665C9.9544 2.27377 10.2726 1.95557 10.6653 1.95557ZM2.64288 13.9331C3.19414 14.2366 3.81137 14.3998 4.44268 14.3999C5.07381 14.3998 5.69038 14.2364 6.24151 13.9331L4.44171 9.13525L2.64288 13.9331ZM15.0882 13.9331C15.6395 14.2366 16.2567 14.3998 16.888 14.3999C17.5191 14.3998 18.1357 14.2364 18.6868 13.9331L16.887 9.13525L15.0882 13.9331Z" fill="#D34329"/>
</svg>
