<svg width="20" height="20" viewBox="0 0 20 20" fill="none" xmlns="http://www.w3.org/2000/svg">
<path d="M15.0007 3.3335H5.00065C4.08018 3.3335 3.33398 4.07969 3.33398 5.00016V15.0002C3.33398 15.9206 4.08018 16.6668 5.00065 16.6668H15.0007C15.9211 16.6668 16.6673 15.9206 16.6673 15.0002V5.00016C16.6673 4.07969 15.9211 3.3335 15.0007 3.3335Z" stroke="#D34329" stroke-width="1.33333" stroke-linecap="round" stroke-linejoin="round"/>
<path d="M11.6667 7.5H8.33333C7.8731 7.5 7.5 7.8731 7.5 8.33333V11.6667C7.5 12.1269 7.8731 12.5 8.33333 12.5H11.6667C12.1269 12.5 12.5 12.1269 12.5 11.6667V8.33333C12.5 7.8731 12.1269 7.5 11.6667 7.5Z" stroke="#D34329" stroke-width="1.33333" stroke-linecap="round" stroke-linejoin="round"/>
<path d="M12.5 1.6665V3.33317" stroke="#D34329" stroke-width="1.33333" stroke-linecap="round" stroke-linejoin="round"/>
<path d="M12.5 16.6665V18.3332" stroke="#D34329" stroke-width="1.33333" stroke-linecap="round" stroke-linejoin="round"/>
<path d="M1.66602 12.5H3.33268" stroke="#D34329" stroke-width="1.33333" stroke-linecap="round" stroke-linejoin="round"/>
<path d="M1.66602 7.5H3.33268" stroke="#D34329" stroke-width="1.33333" stroke-linecap="round" stroke-linejoin="round"/>
<path d="M16.666 12.5H18.3327" stroke="#D34329" stroke-width="1.33333" stroke-linecap="round" stroke-linejoin="round"/>
<path d="M16.666 7.5H18.3327" stroke="#D34329" stroke-width="1.33333" stroke-linecap="round" stroke-linejoin="round"/>
<path d="M7.5 1.6665V3.33317" stroke="#D34329" stroke-width="1.33333" stroke-linecap="round" stroke-linejoin="round"/>
<path d="M7.5 16.6665V18.3332" stroke="#D34329" stroke-width="1.33333" stroke-linecap="round" stroke-linejoin="round"/>
</svg>
