<svg width="20" height="20" viewBox="0 0 20 20" fill="none" xmlns="http://www.w3.org/2000/svg">
<path d="M12.5007 15H8.33398" stroke="#D34329" stroke-width="1.33333" stroke-linecap="round" stroke-linejoin="round"/>
<path d="M15.0007 11.6665H8.33398" stroke="#D34329" stroke-width="1.33333" stroke-linecap="round" stroke-linejoin="round"/>
<path d="M3.33268 18.3332H16.666C17.108 18.3332 17.532 18.1576 17.8445 17.845C18.1571 17.5325 18.3327 17.1085 18.3327 16.6665V3.33317C18.3327 2.89114 18.1571 2.46722 17.8445 2.15466C17.532 1.8421 17.108 1.6665 16.666 1.6665H6.66602C6.22399 1.6665 5.80006 1.8421 5.4875 2.15466C5.17494 2.46722 4.99935 2.89114 4.99935 3.33317V16.6665C4.99935 17.1085 4.82375 17.5325 4.51119 17.845C4.19863 18.1576 3.77471 18.3332 3.33268 18.3332ZM3.33268 18.3332C2.89065 18.3332 2.46673 18.1576 2.15417 17.845C1.84161 17.5325 1.66602 17.1085 1.66602 16.6665V9.1665C1.66602 8.72448 1.84161 8.30055 2.15417 7.98799C2.46673 7.67543 2.89065 7.49984 3.33268 7.49984H4.99935" stroke="#D34329" stroke-width="1.33333" stroke-linecap="round" stroke-linejoin="round"/>
<path d="M14.1673 5H9.16732C8.70708 5 8.33398 5.3731 8.33398 5.83333V7.5C8.33398 7.96024 8.70708 8.33333 9.16732 8.33333H14.1673C14.6276 8.33333 15.0007 7.96024 15.0007 7.5V5.83333C15.0007 5.3731 14.6276 5 14.1673 5Z" stroke="#D34329" stroke-width="1.33333" stroke-linecap="round" stroke-linejoin="round"/>
</svg>
