<svg width="44" height="44" viewBox="0 0 44 44" fill="none" xmlns="http://www.w3.org/2000/svg">
<g clip-path="url(#clip0_50_2)">
<path d="M39.2641 7.16543C39.2641 4.6278 37.207 2.57053 34.6693 2.57051C32.1317 2.57051 30.0744 4.62779 30.0744 7.16543C30.0744 9.70306 32.1317 11.7602 34.6693 11.7602V14.3309L34.4844 14.3285C30.674 14.232 27.6028 11.1608 27.5062 7.35039L27.5039 7.16543C27.5039 3.20809 30.712 0 34.6693 0L34.8543 0.00234375C38.7261 0.100465 41.8348 3.26994 41.8348 7.16543L41.8324 7.35039C41.7343 11.2222 38.5648 14.3308 34.6693 14.3309V11.7602C37.207 11.7601 39.264 9.70305 39.2641 7.16543Z" fill="#D34329"/>
<path d="M34.668 9.41753C35.9117 9.41753 36.92 8.40929 36.92 7.16555C36.92 5.92182 35.9117 4.91357 34.668 4.91357C33.4243 4.91357 32.416 5.92182 32.416 7.16555C32.416 8.40929 33.4243 9.41753 34.668 9.41753Z" fill="#D34329"/>
<path d="M23.2336 43.7499L19.4726 43.7501C9.93285 43.7501 3 37.4273 3 28.2205L3.00181 6.90982C3.00186 6.37443 3.43589 5.94043 3.97127 5.94043H11.7938C12.3293 5.94043 12.7633 6.37453 12.7633 6.90998L12.7615 27.4994C12.7615 31.6592 15.6456 34.4323 19.6389 34.4323L23.0672 34.4321C27.0606 34.4321 29.9447 31.659 29.9447 27.4992V18.544C29.9447 18.0086 30.3787 17.5746 30.9141 17.5746H38.7368C39.2722 17.5746 39.7062 18.0086 39.7062 18.544V28.2203C39.7062 37.4271 32.7733 43.7499 23.2336 43.7499Z" fill="#D34329"/>
</g>
<defs>
<clipPath id="clip0_50_2">
<rect width="44" height="44" fill="white"/>
</clipPath>
</defs>
</svg>
