<svg width="17" height="17" viewBox="0 0 17 17" fill="none" xmlns="http://www.w3.org/2000/svg">
<path d="M2.45031 0.421621C1.46459 0.0877706 0.971721 -0.0791494 0.645101 0.0366206C0.360911 0.137341 0.137341 0.360911 0.0366207 0.645101C-0.0791493 0.971721 0.0877707 1.46459 0.421611 2.45031L4.53711 14.602C4.99915 15.9663 5.23017 16.6484 5.57411 16.8354C5.87168 16.9971 6.2309 16.9973 6.52861 16.8358C6.87271 16.6491 7.10433 15.9672 7.56756 14.6033L9.09774 10.0982C9.19074 9.82417 9.23734 9.68717 9.31564 9.57327C9.38504 9.47237 9.47234 9.38497 9.57324 9.31567C9.68714 9.23727 9.82414 9.19077 10.0981 9.09777L14.6033 7.56756C15.9671 7.10433 16.649 6.87272 16.8357 6.52861C16.9972 6.2309 16.9971 5.87168 16.8353 5.57411C16.6483 5.23017 15.9662 4.99915 14.6019 4.53711L2.45031 0.421621Z" fill="#D34329"/>
</svg>
