<svg width="1440" height="831" viewBox="0 0 1440 831" fill="none" xmlns="http://www.w3.org/2000/svg">
<g opacity="0.4">
<path d="M1442.95 517.724L717.329 309.825" stroke="#D0D0D0" stroke-opacity="0.3" stroke-width="2.02004"/>
<path d="M1442.45 536.48L717.329 309.825" stroke="#D0D0D0" stroke-opacity="0.3" stroke-width="2.02004"/>
<path d="M1442.95 559.049L717.329 309.824" stroke="#D0D0D0" stroke-opacity="0.3" stroke-width="2.02004"/>
<path d="M1442.95 587.024L717.329 309.825" stroke="#D0D0D0" stroke-opacity="0.3" stroke-width="2.02004"/>
<path d="M1442.95 621.992L717.329 309.825" stroke="#D0D0D0" stroke-opacity="0.3" stroke-width="2.02004"/>
<path d="M1442.95 666.497L717.329 309.825" stroke="#D0D0D0" stroke-opacity="0.3" stroke-width="2.02004"/>
<path d="M1442.95 726.26L717.329 309.826" stroke="#D0D0D0" stroke-opacity="0.3" stroke-width="2.02004"/>
<path d="M1442.95 810.183L717.329 309.826" stroke="#D0D0D0" stroke-opacity="0.3" stroke-width="2.02004"/>
<path d="M1350.49 856.595L717.329 309.826" stroke="#D0D0D0" stroke-opacity="0.3" stroke-width="2.02004"/>
<path d="M1189.69 856.595L717.329 309.826" stroke="#D0D0D0" stroke-opacity="0.3" stroke-width="2.02004"/>
<path d="M1029.89 856.595L717.328 309.826" stroke="#D0D0D0" stroke-opacity="0.3" stroke-width="2.02004"/>
<path d="M870.092 856.595L717.33 309.826" stroke="#D0D0D0" stroke-opacity="0.3" stroke-width="2.02004"/>
<path d="M711.299 856.595L717.329 309.826" stroke="#D0D0D0" stroke-opacity="0.3" stroke-width="2.02004"/>
<path d="M-8.29102 517.724L717.329 309.825" stroke="#D0D0D0" stroke-opacity="0.3" stroke-width="2.02004"/>
<path d="M-7.78906 536.479L717.328 309.825" stroke="#D0D0D0" stroke-opacity="0.3" stroke-width="2.02004"/>
<path d="M-8.29102 559.049L717.329 309.825" stroke="#D0D0D0" stroke-opacity="0.3" stroke-width="2.02004"/>
<path d="M-8.29102 587.023L717.329 309.824" stroke="#D0D0D0" stroke-opacity="0.3" stroke-width="2.02004"/>
<path d="M-8.29102 621.992L717.329 309.825" stroke="#D0D0D0" stroke-opacity="0.3" stroke-width="2.02004"/>
<path d="M-8.29102 666.497L717.329 309.825" stroke="#D0D0D0" stroke-opacity="0.3" stroke-width="2.02004"/>
<path d="M-8.29102 726.26L717.329 309.826" stroke="#D0D0D0" stroke-opacity="0.3" stroke-width="2.02004"/>
<path d="M-8.29102 810.182L717.329 309.825" stroke="#D0D0D0" stroke-opacity="0.3" stroke-width="2.02004"/>
<path d="M84.1699 856.594L717.329 309.826" stroke="#D0D0D0" stroke-opacity="0.3" stroke-width="2.02004"/>
<path d="M244.971 856.594L717.328 309.826" stroke="#D0D0D0" stroke-opacity="0.3" stroke-width="2.02004"/>
<path d="M404.77 856.595L717.329 309.826" stroke="#D0D0D0" stroke-opacity="0.3" stroke-width="2.02004"/>
<path d="M564.567 856.595L717.329 309.826" stroke="#D0D0D0" stroke-opacity="0.3" stroke-width="2.02004"/>
<path d="M1442.95 789.838L-4.271 789.838" stroke="#D0D0D0" stroke-opacity="0.3" stroke-width="2.02004"/>
<path d="M1442.95 737.068L-4.271 737.068" stroke="#D0D0D0" stroke-opacity="0.3" stroke-width="2.02004"/>
<path d="M1442.95 693.835L-4.271 693.835" stroke="#D0D0D0" stroke-opacity="0.3" stroke-width="2.02004"/>
<path d="M1442.95 659.504L-4.271 659.504" stroke="#D0D0D0" stroke-opacity="0.3" stroke-width="2.02004"/>
<path d="M1442.95 630.258L-4.271 630.258" stroke="#D0D0D0" stroke-opacity="0.3" stroke-width="2.02004"/>
<path d="M1442.95 606.098L-4.271 606.098" stroke="#D0D0D0" stroke-opacity="0.3" stroke-width="2.02004"/>
<path d="M1442.95 585.117L-4.271 585.116" stroke="#D0D0D0" stroke-opacity="0.3" stroke-width="2.02004"/>
<path d="M1442.95 566.678L-4.271 566.678" stroke="#D0D0D0" stroke-opacity="0.3" stroke-width="2.02004"/>
<path d="M1442.95 550.148L-4.271 550.148" stroke="#D0D0D0" stroke-opacity="0.3" stroke-width="2.02004"/>
<path d="M1442.95 536.162L-4.271 536.162" stroke="#D0D0D0" stroke-opacity="0.3" stroke-width="2.02004"/>
<path d="M1442.95 524.081L-4.271 524.081" stroke="#D0D0D0" stroke-opacity="0.3" stroke-width="2.02004"/>
<path d="M1442.95 512.638L-4.271 512.637" stroke="#D0D0D0" stroke-opacity="0.3" stroke-width="2.02004"/>
<rect x="1448" y="859.538" width="1459.48" height="860.538" transform="rotate(180 1448 859.538)" fill="url(#paint0_linear_219_880)"/>
<rect x="1447.49" y="859.033" width="1458.47" height="859.528" transform="rotate(180 1447.49 859.033)" stroke="#D0D0D0" stroke-opacity="0.3" stroke-width="1.01002"/>
</g>
<defs>
<linearGradient id="paint0_linear_219_880" x1="2177.2" y1="859.538" x2="2177.2" y2="1592.62" gradientUnits="userSpaceOnUse">
<stop stop-color="#121212" stop-opacity="0"/>
<stop offset="0.0001" stop-color="#121212" stop-opacity="0"/>
<stop offset="0.581361" stop-color="#19191C"/>
</linearGradient>
</defs>
</svg>
