<svg width="21" height="21" viewBox="0 0 21 21" fill="none" xmlns="http://www.w3.org/2000/svg">
<path d="M1.25 0.0666504C0.95 0.149984 0.6875 0.30415 0.4625 0.52915C0.2375 0.75415 0.1 1.01665 0.05 1.31665C0.0166667 1.48332 0 4.54165 0 10.4917L0.025 19.4417L0.175 19.7667C0.358333 20.15 0.616667 20.425 0.95 20.5917L1.025 20.6417C1.15833 20.7083 1.33333 20.75 1.55 20.7667C1.86667 20.8 2.55833 20.8167 3.625 20.8167H17.4C18.4333 20.8167 19.1083 20.8 19.425 20.7667C19.625 20.75 19.7917 20.7 19.925 20.6167L20 20.5667C20.1333 20.4833 20.2708 20.3583 20.4125 20.1917C20.5542 20.025 20.6583 19.8667 20.725 19.7167L20.8 19.4667L20.825 10.4667C20.825 4.46665 20.8167 1.39998 20.8 1.26665C20.6833 0.766649 20.3917 0.399984 19.925 0.166651L19.6 0.0166492H10.55C6.61667 -1.71661e-05 4.10833 -0.00418282 3.025 0.00415039C1.94167 0.0124836 1.35 0.0333176 1.25 0.0666504ZM5.35 3.49165C5.88333 3.57498 6.275 3.85832 6.525 4.34165C6.575 4.45832 6.60833 4.55415 6.625 4.62915C6.64167 4.70415 6.65 4.85415 6.65 5.07915C6.65 5.30415 6.64167 5.45415 6.625 5.52915C6.60833 5.60415 6.56667 5.70415 6.5 5.82915C6.43333 5.95415 6.325 6.08748 6.175 6.22915C6.025 6.37082 5.88333 6.47498 5.75 6.54165C5.66667 6.59165 5.58333 6.62082 5.5 6.62915C5.41667 6.63748 5.27083 6.64165 5.0625 6.64165C4.85417 6.64165 4.7125 6.63748 4.6375 6.62915C4.5625 6.62082 4.475 6.59165 4.375 6.54165C4.04167 6.37498 3.79583 6.13748 3.6375 5.82915C3.47917 5.52082 3.42917 5.17498 3.4875 4.79165C3.54583 4.40832 3.70417 4.09998 3.9625 3.86665C4.22083 3.63332 4.575 3.49998 5.025 3.46665C5.04167 3.46665 5.15 3.47498 5.35 3.49165ZM14.7 7.89165C15.35 8.02498 15.8875 8.31248 16.3125 8.75415C16.7375 9.19582 17.0333 9.76665 17.2 10.4667C17.2667 10.7667 17.3125 11.1625 17.3375 11.6542C17.3625 12.1458 17.375 13.1167 17.375 14.5667V17.3667H14.325V14.5167C14.3083 13.25 14.2958 12.4458 14.2875 12.1041C14.2792 11.7625 14.2583 11.5416 14.225 11.4417C14.125 11.0583 13.9708 10.7708 13.7625 10.5792C13.5542 10.3875 13.2833 10.2792 12.95 10.2542C12.6167 10.2291 12.3042 10.2958 12.0125 10.4542C11.7208 10.6125 11.5083 10.8333 11.375 11.1167C11.2917 11.2667 11.2417 11.4083 11.225 11.5416C11.1917 11.7083 11.175 12.0167 11.175 12.4667L11.15 17.3667H8.2V8.06665H11.15V9.39165L11.325 9.14165C11.7583 8.50832 12.3333 8.09998 13.05 7.91665C13.2333 7.86665 13.5042 7.83748 13.8625 7.82915C14.2208 7.82082 14.5 7.84165 14.7 7.89165ZM6.5 12.7167V17.3667H3.45V8.06665H6.5V12.7167Z" fill="white"/>
</svg>
