<svg width="14" height="14" viewBox="0 0 14 14" fill="none" xmlns="http://www.w3.org/2000/svg">
<path d="M11.6668 5.83317C11.6668 8.74575 8.43575 11.7791 7.35075 12.7159C7.24967 12.7919 7.12663 12.833 7.00016 12.833C6.8737 12.833 6.75066 12.7919 6.64958 12.7159C5.56458 11.7791 2.3335 8.74575 2.3335 5.83317C2.3335 4.59549 2.82516 3.40851 3.70033 2.53334C4.5755 1.65817 5.76249 1.1665 7.00016 1.1665C8.23784 1.1665 9.42482 1.65817 10.3 2.53334C11.1752 3.40851 11.6668 4.59549 11.6668 5.83317Z" stroke="#19191C" stroke-width="1.16667" stroke-linecap="round" stroke-linejoin="round"/>
<path d="M7 7.5835C7.9665 7.5835 8.75 6.79999 8.75 5.8335C8.75 4.867 7.9665 4.0835 7 4.0835C6.0335 4.0835 5.25 4.867 5.25 5.8335C5.25 6.79999 6.0335 7.5835 7 7.5835Z" stroke="#19191C" stroke-width="1.16667" stroke-linecap="round" stroke-linejoin="round"/>
</svg>
