<svg width="44" height="44" viewBox="0 0 44 44" fill="none" xmlns="http://www.w3.org/2000/svg">
<path d="M27.6367 2.29883C27.9513 2.33011 28.2471 2.46895 28.4727 2.69434L37.6396 11.8613C37.8974 12.1192 38.042 12.4694 38.042 12.834V36.667C38.0419 38.004 37.5108 39.287 36.5654 40.2324C35.6201 41.1775 34.3378 41.7089 33.001 41.709H11.001C9.66401 41.709 8.38101 41.1777 7.43555 40.2324C6.49014 39.287 5.95908 38.004 5.95898 36.667V7.33398C5.95898 5.99694 6.49017 4.71403 7.43555 3.76855C8.38104 2.82306 9.66384 2.29199 11.001 2.29199H27.501L27.6367 2.29883ZM11.001 5.04199C10.3932 5.04199 9.80965 5.28312 9.37988 5.71289C8.95023 6.14264 8.70898 6.72628 8.70898 7.33398V36.667C8.70908 37.2745 8.9504 37.8575 9.37988 38.2871C9.80964 38.7168 10.3933 38.959 11.001 38.959H33.001C33.6086 38.9589 34.1914 38.7167 34.6211 38.2871C35.0507 37.8574 35.2919 37.2746 35.292 36.667V16.042H29.333C27.996 16.042 26.7131 15.5108 25.7676 14.5654C24.8222 13.62 24.2911 12.337 24.291 11V5.04199H11.001ZM27.041 11C27.0411 11.6077 27.2822 12.1914 27.7119 12.6211C28.1417 13.0507 28.7253 13.292 29.333 13.292H35.1816L27.041 5.15137V11Z" fill="white" fill-opacity="0.25"/>
<path d="M18.3327 16.5H14.666" stroke="white" stroke-opacity="0.25" stroke-width="2.75" stroke-linecap="round" stroke-linejoin="round"/>
<path d="M29.3327 23.8334H14.666" stroke="white" stroke-opacity="0.25" stroke-width="2.75" stroke-linecap="round" stroke-linejoin="round"/>
<path d="M29.3327 31.1666H14.666" stroke="white" stroke-opacity="0.25" stroke-width="2.75" stroke-linecap="round" stroke-linejoin="round"/>
</svg>
