<svg width="44" height="44" viewBox="0 0 44 44" fill="none" xmlns="http://www.w3.org/2000/svg">
<path d="M21.9993 40.3333C32.1246 40.3333 40.3327 32.1252 40.3327 22C40.3327 11.8747 32.1246 3.66663 21.9993 3.66663C11.8741 3.66663 3.66602 11.8747 3.66602 22C3.66602 32.1252 11.8741 40.3333 21.9993 40.3333Z" stroke="white" stroke-opacity="0.25" stroke-width="2.75" stroke-linecap="round" stroke-linejoin="round"/>
<path d="M22 33C28.0751 33 33 28.0751 33 22C33 15.9249 28.0751 11 22 11C15.9249 11 11 15.9249 11 22C11 28.0751 15.9249 33 22 33Z" stroke="white" stroke-opacity="0.25" stroke-width="2.75" stroke-linecap="round" stroke-linejoin="round"/>
<path d="M22.0007 25.6667C24.0257 25.6667 25.6673 24.0251 25.6673 22C25.6673 19.975 24.0257 18.3334 22.0007 18.3334C19.9756 18.3334 18.334 19.975 18.334 22C18.334 24.0251 19.9756 25.6667 22.0007 25.6667Z" stroke="white" stroke-opacity="0.25" stroke-width="2.75" stroke-linecap="round" stroke-linejoin="round"/>
</svg>
