<svg width="44" height="44" viewBox="0 0 44 44" fill="none" xmlns="http://www.w3.org/2000/svg">
<path d="M23.5225 3.99667C23.0448 3.77878 22.5259 3.66602 22.0008 3.66602C21.4758 3.66602 20.9569 3.77878 20.4792 3.99667L4.7675 11.1467C4.44217 11.2901 4.16557 11.5251 3.97139 11.8229C3.77721 12.1207 3.67383 12.4686 3.67383 12.8242C3.67383 13.1797 3.77721 13.5276 3.97139 13.8254C4.16557 14.1233 4.44217 14.3582 4.7675 14.5017L20.4975 21.67C20.9752 21.8879 21.4941 22.0007 22.0192 22.0007C22.5442 22.0007 23.0631 21.8879 23.5408 21.67L39.2708 14.52C39.5962 14.3766 39.8728 14.1416 40.0669 13.8438C40.2611 13.5459 40.3645 13.1981 40.3645 12.8425C40.3645 12.487 40.2611 12.1391 40.0669 11.8412C39.8728 11.5434 39.5962 11.3085 39.2708 11.165L23.5225 3.99667Z" stroke="white" stroke-opacity="0.25" stroke-width="2.75" stroke-linecap="round" stroke-linejoin="round"/>
<path d="M3.667 22C3.66613 22.3507 3.76584 22.6942 3.95431 22.9899C4.14278 23.2856 4.4121 23.5211 4.73033 23.6683L20.497 30.8367C20.9722 31.0518 21.4878 31.1632 22.0095 31.1632C22.5311 31.1632 23.0468 31.0518 23.522 30.8367L39.252 23.6867C39.5765 23.5408 39.8516 23.3037 40.0436 23.0042C40.2357 22.7047 40.3365 22.3558 40.3337 22" stroke="white" stroke-opacity="0.25" stroke-width="2.75" stroke-linecap="round" stroke-linejoin="round"/>
<path d="M3.667 31.1666C3.66613 31.5173 3.76584 31.8608 3.95431 32.1565C4.14278 32.4522 4.4121 32.6877 4.73033 32.835L20.497 40.0033C20.9722 40.2185 21.4878 40.3298 22.0095 40.3298C22.5311 40.3298 23.0468 40.2185 23.522 40.0033L39.252 32.8533C39.5765 32.7074 39.8516 32.4703 40.0436 32.1708C40.2357 31.8713 40.3365 31.5224 40.3337 31.1666" stroke="white" stroke-opacity="0.25" stroke-width="2.75" stroke-linecap="round" stroke-linejoin="round"/>
</svg>
