<svg width="44" height="44" viewBox="0 0 44 44" fill="none" xmlns="http://www.w3.org/2000/svg">
<path d="M29.3327 38.4996V34.833C29.3327 32.888 28.5601 31.0228 27.1848 29.6475C25.8095 28.2723 23.9443 27.4996 21.9993 27.4996H10.9993C9.05443 27.4996 7.18917 28.2723 5.8139 29.6475C4.43863 31.0228 3.66602 32.888 3.66602 34.833V38.4996" stroke="white" stroke-opacity="0.25" stroke-width="2.75" stroke-linecap="round" stroke-linejoin="round"/>
<path d="M16.4993 20.1667C20.5494 20.1667 23.8327 16.8834 23.8327 12.8333C23.8327 8.78325 20.5494 5.5 16.4993 5.5C12.4493 5.5 9.16602 8.78325 9.16602 12.8333C9.16602 16.8834 12.4493 20.1667 16.4993 20.1667Z" stroke="white" stroke-opacity="0.25" stroke-width="2.75" stroke-linecap="round" stroke-linejoin="round"/>
<path d="M40.334 38.5001V34.8334C40.3328 33.2086 39.792 31.6302 38.7965 30.346C37.801 29.0618 36.4072 28.1446 34.834 27.7384" stroke="white" stroke-opacity="0.25" stroke-width="2.75" stroke-linecap="round" stroke-linejoin="round"/>
<path d="M29.334 5.7384C30.9114 6.14229 32.3096 7.05969 33.308 8.34597C34.3064 9.63226 34.8484 11.2143 34.8484 12.8426C34.8484 14.4709 34.3064 16.0529 33.308 17.3392C32.3096 18.6255 30.9114 19.5429 29.334 19.9467" stroke="white" stroke-opacity="0.25" stroke-width="2.75" stroke-linecap="round" stroke-linejoin="round"/>
</svg>
