<svg width="44" height="44" viewBox="0 0 44 44" fill="none" xmlns="http://www.w3.org/2000/svg">
<path fill-rule="evenodd" clip-rule="evenodd" d="M38.1318 9.67446C38.5457 9.55951 38.99 9.64503 39.332 9.90492C39.674 10.1649 39.8749 10.5701 39.875 10.9997V32.9997C39.875 33.4166 39.6855 33.8109 39.3604 34.0719C39.0351 34.3328 38.6092 34.4318 38.2021 34.3414L22.6387 30.8825C22.6329 30.9764 22.6178 31.0713 22.5918 31.1657C22.3512 32.0379 21.9408 32.8543 21.3848 33.568C20.8287 34.2817 20.1374 34.8792 19.3506 35.3258C18.5637 35.7724 17.6967 36.06 16.7988 36.1715C15.9009 36.283 14.9894 36.2158 14.1172 35.9752C13.2451 35.7346 12.4285 35.3252 11.7148 34.7692C11.0012 34.2131 10.4036 33.5218 9.95703 32.735C9.51043 31.9481 9.22381 31.0801 9.1123 30.1823C9.01769 29.4201 9.0515 28.6484 9.21094 27.8991L5.20215 27.0084C4.57317 26.8686 4.12515 26.3109 4.125 25.6666V20.1666C4.12513 19.5492 4.53688 19.0068 5.13184 18.8414L38.1318 9.67446ZM11.8955 28.4957C11.804 28.9383 11.785 29.3938 11.8408 29.8434C11.9078 30.3829 12.0803 30.9048 12.3486 31.3776C12.617 31.8503 12.9765 32.2652 13.4053 32.5993C13.8341 32.9334 14.3246 33.1803 14.8486 33.3248C15.3727 33.4694 15.9204 33.509 16.46 33.442C16.9994 33.3751 17.5204 33.2025 17.9932 32.9342C18.4659 32.6659 18.8817 32.3073 19.2158 31.8786C19.5499 31.4497 19.7968 30.9583 19.9414 30.4342C19.9547 30.3862 19.9694 30.3389 19.9873 30.2936L11.8955 28.4957ZM6.875 21.2106V24.5631L37.125 31.2858V12.8082L6.875 21.2106Z" fill="white" fill-opacity="0.25"/>
</svg>
