<svg width="15" height="15" viewBox="0 0 15 15" fill="none" xmlns="http://www.w3.org/2000/svg">
<path d="M5.725 0.0249996C5.29167 0.0749998 4.94167 0.158333 4.675 0.275C4.55833 0.341666 4.4375 0.433333 4.3125 0.55C4.1875 0.666666 4.09583 0.783333 4.0375 0.9C3.97917 1.01667 3.925 1.1875 3.875 1.4125C3.825 1.6375 3.79167 1.85833 3.775 2.075L3.75 2.5H5.25L5.3 2.075C5.33333 1.79167 5.36667 1.63333 5.4 1.6C5.43333 1.56667 5.74167 1.54167 6.325 1.525C6.90833 1.50833 7.925 1.5 9.375 1.5C10.975 1.5 12.0292 1.50833 12.5375 1.525C13.0458 1.54167 13.325 1.58333 13.375 1.65C13.425 1.71667 13.4583 1.98333 13.475 2.45C13.4917 2.91667 13.5 3.97083 13.5 5.6125C13.5 7.25417 13.4917 8.3125 13.475 8.7875C13.4583 9.2625 13.4292 9.525 13.3875 9.575C13.3458 9.625 13.1917 9.66667 12.925 9.7L12.525 9.75L12.5 11.225L12.875 11.2C13.8583 11.1667 14.4833 10.85 14.75 10.25C14.8333 10.0667 14.8917 9.85833 14.925 9.625C14.9583 9.35833 14.9833 8.925 15 8.325C15 7.825 15 6.925 15 5.625C15 4.15833 14.9917 3.13333 14.975 2.55C14.9583 1.96667 14.925 1.575 14.875 1.375C14.7917 1.00833 14.6375 0.720833 14.4125 0.5125C14.1875 0.304167 13.875 0.158333 13.475 0.0749998C13.3417 0.0583334 13.0417 0.0458326 12.575 0.0374994C12.1083 0.0291662 11.125 0.0166664 9.625 0C7.275 0 5.975 0.00833321 5.725 0.0249996ZM1.475 3.775C1.15833 3.84167 0.858333 4.01667 0.575 4.3C0.291667 4.58333 0.116667 4.89167 0.05 5.225C0.0166667 5.39167 0 6.775 0 9.375C0 11.975 0.0166667 13.35 0.05 13.5C0.116667 13.8333 0.291667 14.1417 0.575 14.425C0.858333 14.7083 1.16667 14.8833 1.5 14.95C1.65 14.9833 3.025 15 5.625 15C8.225 15 9.60833 14.9833 9.775 14.95C10.1083 14.8833 10.4167 14.7083 10.7 14.425C10.9833 14.1417 11.1583 13.8333 11.225 13.5C11.2417 13.35 11.25 11.975 11.25 9.375C11.25 6.775 11.2417 5.39167 11.225 5.225C11.1583 4.89167 10.9833 4.58333 10.7 4.3C10.4167 4.01667 10.1083 3.84167 9.775 3.775C9.625 3.75833 8.2375 3.75 5.6125 3.75C2.9875 3.75 1.60833 3.75833 1.475 3.775ZM9.65 5.35L9.75 5.475V13.25L9.525 13.5H1.75L1.5 13.25V5.475L1.75 5.25H9.525L9.65 5.35Z" fill="white"/>
</svg>
