<svg width="22" height="22" viewBox="0 0 22 22" fill="none" xmlns="http://www.w3.org/2000/svg">
<g clip-path="url(#clip0_1365_1176)">
<path d="M17.0327 1.96238L11.2898 0.047459C11.1018 -0.0151686 10.8985 -0.0151686 10.7105 0.047459L4.96758 1.96238C4.05449 2.26568 3.26021 2.84903 2.69759 3.62953C2.13496 4.41003 1.83261 5.34798 1.8335 6.31013V11.0007C1.8335 17.9335 10.2668 21.7624 10.628 21.9219C10.7452 21.9739 10.872 22.0008 11.0002 22.0008C11.1284 22.0008 11.2552 21.9739 11.3723 21.9219C11.7335 21.7624 20.1668 17.9335 20.1668 11.0007V6.31013C20.1677 5.34798 19.8654 4.41003 19.3027 3.62953C18.7401 2.84903 17.9458 2.26568 17.0327 1.96238ZM18.3335 11.0007C18.3335 16.0011 12.5411 19.281 11.0002 20.0656C9.45741 19.2837 3.66683 16.014 3.66683 11.0007V6.31013C3.66688 5.73288 3.84858 5.17029 4.18618 4.70206C4.52378 4.23383 5.00016 3.8837 5.54783 3.70129L11.0002 1.88354L16.4525 3.70129C17.0002 3.8837 17.4765 4.23383 17.8141 4.70206C18.1517 5.17029 18.3334 5.73288 18.3335 6.31013V11.0007Z" fill="#34D399"/>
<path d="M14.0247 7.60865L10.1857 11.4587L8.12873 9.31365C8.04618 9.22339 7.9464 9.15057 7.83527 9.09947C7.72414 9.04837 7.6039 9.02003 7.48165 9.01611C7.3594 9.0122 7.2376 9.03279 7.12342 9.07667C7.00925 9.12056 6.90502 9.18685 6.81686 9.27164C6.7287 9.35643 6.65841 9.45801 6.61012 9.57039C6.56182 9.68277 6.53651 9.80368 6.53567 9.92599C6.53482 10.0483 6.55847 10.1695 6.60521 10.2826C6.65195 10.3956 6.72083 10.4982 6.80781 10.5842L8.92165 12.7842C9.07929 12.9544 9.26983 13.091 9.48174 13.1855C9.69366 13.28 9.92255 13.3306 10.1546 13.3342H10.1848C10.4122 13.3349 10.6375 13.2905 10.8475 13.2035C11.0576 13.1164 11.2483 12.9886 11.4086 12.8272L15.3246 8.91123C15.4101 8.82588 15.478 8.72453 15.5243 8.61294C15.5707 8.50136 15.5946 8.38174 15.5947 8.26091C15.5949 8.14008 15.5712 8.02041 15.5251 7.90873C15.479 7.79705 15.4113 7.69555 15.3259 7.61002C15.2406 7.52449 15.1392 7.45661 15.0276 7.41025C14.9161 7.3639 14.7964 7.33997 14.6756 7.33984C14.5548 7.33972 14.4351 7.36339 14.3234 7.40951C14.2118 7.45563 14.1103 7.5233 14.0247 7.60865Z" fill="#34D399"/>
</g>
<defs>
<clipPath id="clip0_1365_1176">
<rect width="22" height="22" fill="white"/>
</clipPath>
</defs>
</svg>
