<svg width="24" height="24" viewBox="0 0 24 24" fill="none" xmlns="http://www.w3.org/2000/svg">
<path d="M1.44058 0.0766735C1.09484 0.17271 0.792317 0.350382 0.533013 0.609686C0.273709 0.86899 0.115246 1.17151 0.057623 1.51725C0.0192077 1.70933 0 5.23393 0 12.0911L0.0288115 22.4056L0.201681 22.7802C0.412965 23.2219 0.710684 23.5389 1.09484 23.7309L1.18127 23.7886C1.33493 23.8654 1.53661 23.9134 1.78631 23.9326C2.15126 23.971 2.94838 23.9902 4.17767 23.9902H20.0528C21.2437 23.9902 22.0216 23.971 22.3866 23.9326C22.617 23.9134 22.8091 23.8558 22.9628 23.7597L23.0492 23.7021C23.2029 23.6061 23.3613 23.462 23.5246 23.2699C23.6879 23.0779 23.8079 22.8954 23.8848 22.7225L23.9712 22.4344L24 12.0623C24 5.1475 23.9904 1.61329 23.9712 1.45963C23.8367 0.883396 23.5006 0.460827 22.9628 0.191919L22.5882 0.0190506H12.1585C7.62545 -0.00015831 4.73469 -0.00495911 3.48619 0.00464439C2.23769 0.0142479 1.55582 0.0382576 1.44058 0.0766735ZM6.16567 4.02385C6.78031 4.11989 7.23169 4.44642 7.51981 5.00344C7.57743 5.1379 7.61585 5.24834 7.63505 5.33478C7.65426 5.42121 7.66387 5.59408 7.66387 5.85338C7.66387 6.11269 7.65426 6.28555 7.63505 6.37199C7.61585 6.45842 7.56783 6.57367 7.491 6.71773C7.41417 6.86179 7.28932 7.01545 7.11645 7.17871C6.94358 7.34198 6.78031 7.46203 6.62665 7.53886C6.53061 7.59648 6.43457 7.63009 6.33854 7.6397C6.2425 7.6493 6.07443 7.6541 5.83433 7.6541C5.59424 7.6541 5.43097 7.6493 5.34454 7.6397C5.2581 7.63009 5.15726 7.59648 5.04202 7.53886C4.65786 7.34678 4.37455 7.07307 4.19208 6.71773C4.0096 6.36239 3.95198 5.96383 4.01921 5.52205C4.08643 5.08027 4.26891 4.72493 4.56663 4.45602C4.86435 4.18712 5.27251 4.03345 5.79112 3.99504C5.81032 3.99504 5.93517 4.00464 6.16567 4.02385ZM16.9412 9.09468C17.6903 9.24834 18.3097 9.57967 18.7995 10.0887C19.2893 10.5977 19.6303 11.2555 19.8223 12.0623C19.8992 12.408 19.952 12.8642 19.9808 13.4308C20.0096 13.9974 20.024 15.1163 20.024 16.7874V20.0142H16.509V16.7297C16.4898 15.2699 16.4754 14.3432 16.4658 13.9494C16.4562 13.5557 16.4322 13.3012 16.3938 13.1859C16.2785 12.7441 16.1008 12.4128 15.8607 12.1919C15.6206 11.971 15.3085 11.8462 14.9244 11.8174C14.5402 11.7886 14.1801 11.8654 13.8439 12.0479C13.5078 12.2303 13.2629 12.4848 13.1092 12.8114C13.0132 12.9842 12.9556 13.1475 12.9364 13.3012C12.898 13.4932 12.8788 13.8486 12.8788 14.3672L12.8499 20.0142H9.45018V9.29636H12.8499V10.8234L13.0516 10.5353C13.551 9.80536 14.2137 9.33477 15.0396 9.12349C15.2509 9.06587 15.563 9.03225 15.976 9.02265C16.389 9.01305 16.7107 9.03706 16.9412 9.09468ZM7.491 14.6553V20.0142H3.97599V9.29636H7.491V14.6553Z" fill="#19191C"/>
</svg>
