<svg width="18" height="18" viewBox="0 0 18 18" fill="none" xmlns="http://www.w3.org/2000/svg">
<g clip-path="url(#clip0_1326_3663)">
<path d="M16.155 11.25H12.75C12.3522 11.25 11.9706 11.408 11.6893 11.6893C11.408 11.9706 11.25 12.3522 11.25 12.75V16.155" stroke="white" stroke-opacity="0.7" stroke-width="1.2" stroke-linecap="round" stroke-linejoin="round"/>
<path d="M5.25 2.50488V3.74988C5.25 4.34662 5.48705 4.91892 5.90901 5.34087C6.33097 5.76283 6.90326 5.99988 7.5 5.99988C7.89782 5.99988 8.27936 6.15792 8.56066 6.43922C8.84196 6.72053 9 7.10206 9 7.49988C9 8.32488 9.675 8.99988 10.5 8.99988C10.8978 8.99988 11.2794 8.84185 11.5607 8.56054C11.842 8.27924 12 7.89771 12 7.49988C12 6.67488 12.675 5.99988 13.5 5.99988H15.8775" stroke="white" stroke-opacity="0.7" stroke-width="1.2" stroke-linecap="round" stroke-linejoin="round"/>
<path d="M8.24961 16.4625V13.5C8.24961 13.1022 8.09157 12.7206 7.81027 12.4393C7.52896 12.158 7.14743 12 6.74961 12C6.35178 12 5.97025 11.842 5.68895 11.5607C5.40764 11.2794 5.24961 10.8978 5.24961 10.5V9.75C5.24961 9.35218 5.09157 8.97064 4.81027 8.68934C4.52897 8.40804 4.14743 8.25 3.74961 8.25H1.53711" stroke="white" stroke-opacity="0.7" stroke-width="1.2" stroke-linecap="round" stroke-linejoin="round"/>
<path d="M9 16.5C13.1421 16.5 16.5 13.1421 16.5 9C16.5 4.85786 13.1421 1.5 9 1.5C4.85786 1.5 1.5 4.85786 1.5 9C1.5 13.1421 4.85786 16.5 9 16.5Z" stroke="white" stroke-opacity="0.7" stroke-width="1.2" stroke-linecap="round" stroke-linejoin="round"/>
</g>
<defs>
<clipPath id="clip0_1326_3663">
<rect width="18" height="18" fill="white"/>
</clipPath>
</defs>
</svg>
