<svg width="18" height="18" viewBox="0 0 18 18" fill="none" xmlns="http://www.w3.org/2000/svg">
<path d="M2.2275 9.69C2.00607 9.82304 1.82275 10.011 1.69529 10.2357C1.56783 10.4604 1.50057 10.7142 1.5 10.9725V13.4025C1.50057 13.6608 1.56783 13.9146 1.69529 14.1393C1.82275 14.364 2.00607 14.552 2.2275 14.685L4.4775 16.035C4.7108 16.1752 4.97783 16.2492 5.25 16.2492C5.52217 16.2492 5.7892 16.1752 6.0225 16.035L9 14.25V10.125L5.25 7.875L2.2275 9.69Z" stroke="white" stroke-opacity="0.7" stroke-width="1.2" stroke-linecap="round" stroke-linejoin="round"/>
<path d="M5.25031 12.3748L1.69531 10.2373" stroke="white" stroke-opacity="0.7" stroke-width="1.2" stroke-linecap="round" stroke-linejoin="round"/>
<path d="M5.25 12.375L9 10.125" stroke="white" stroke-opacity="0.7" stroke-width="1.2" stroke-linecap="round" stroke-linejoin="round"/>
<path d="M5.25 12.375V16.2525" stroke="white" stroke-opacity="0.7" stroke-width="1.2" stroke-linecap="round" stroke-linejoin="round"/>
<path d="M9 10.125V14.25L11.9775 16.035C12.2108 16.1752 12.4778 16.2492 12.75 16.2492C13.0222 16.2492 13.2892 16.1752 13.5225 16.035L15.7725 14.685C15.9939 14.552 16.1773 14.364 16.3047 14.1393C16.4322 13.9146 16.4994 13.6608 16.5 13.4025V10.9725C16.4994 10.7142 16.4322 10.4604 16.3047 10.2357C16.1773 10.011 15.9939 9.82304 15.7725 9.69L12.75 7.875L9 10.125Z" stroke="white" stroke-opacity="0.7" stroke-width="1.2" stroke-linecap="round" stroke-linejoin="round"/>
<path d="M12.75 12.375L9 10.125" stroke="white" stroke-opacity="0.7" stroke-width="1.2" stroke-linecap="round" stroke-linejoin="round"/>
<path d="M12.75 12.3748L16.305 10.2373" stroke="white" stroke-opacity="0.7" stroke-width="1.2" stroke-linecap="round" stroke-linejoin="round"/>
<path d="M12.75 12.375V16.2525" stroke="white" stroke-opacity="0.7" stroke-width="1.2" stroke-linecap="round" stroke-linejoin="round"/>
<path d="M5.9775 3.31519C5.75607 3.44823 5.57275 3.63619 5.44529 3.86088C5.31783 4.08557 5.25057 4.33937 5.25 4.59769V7.87519L9 10.1252L12.75 7.87519V4.59769C12.7494 4.33937 12.6822 4.08557 12.5547 3.86088C12.4273 3.63619 12.2439 3.44823 12.0225 3.31519L9.7725 1.96519C9.5392 1.82503 9.27217 1.75098 9 1.75098C8.72783 1.75098 8.4608 1.82503 8.2275 1.96519L5.9775 3.31519Z" stroke="white" stroke-opacity="0.7" stroke-width="1.2" stroke-linecap="round" stroke-linejoin="round"/>
<path d="M9.00031 5.9998L5.44531 3.8623" stroke="white" stroke-opacity="0.7" stroke-width="1.2" stroke-linecap="round" stroke-linejoin="round"/>
<path d="M9 5.9998L12.555 3.8623" stroke="white" stroke-opacity="0.7" stroke-width="1.2" stroke-linecap="round" stroke-linejoin="round"/>
<path d="M9 10.125V6" stroke="white" stroke-opacity="0.7" stroke-width="1.2" stroke-linecap="round" stroke-linejoin="round"/>
</svg>
