<svg width="18" height="18" viewBox="0 0 18 18" fill="none" xmlns="http://www.w3.org/2000/svg">
<g clip-path="url(#clip0_1072_701)">
<path d="M4.39941 16.1335V2.93346C4.39941 2.54448 4.55394 2.17143 4.82899 1.89637C5.10404 1.62132 5.4771 1.4668 5.86608 1.4668H11.7327C12.1217 1.4668 12.4948 1.62132 12.7698 1.89637C13.0449 2.17143 13.1994 2.54448 13.1994 2.93346V16.1335H4.39941Z" stroke="white" stroke-opacity="0.75" stroke-width="1.46667" stroke-linecap="round" stroke-linejoin="round"/>
<path d="M4.39915 8.7998H2.93249C2.5435 8.7998 2.17045 8.95433 1.8954 9.22938C1.62034 9.50444 1.46582 9.87749 1.46582 10.2665V14.6665C1.46582 15.0555 1.62034 15.4285 1.8954 15.7036C2.17045 15.9786 2.5435 16.1331 2.93249 16.1331H4.39915" stroke="white" stroke-opacity="0.75" stroke-width="1.46667" stroke-linecap="round" stroke-linejoin="round"/>
<path d="M13.2002 6.59961H14.6669C15.0558 6.59961 15.4289 6.75413 15.704 7.02919C15.979 7.30424 16.1335 7.67729 16.1335 8.06628V14.6663C16.1335 15.0553 15.979 15.4283 15.704 15.7034C15.4289 15.9784 15.0558 16.1329 14.6669 16.1329H13.2002" stroke="white" stroke-opacity="0.75" stroke-width="1.46667" stroke-linecap="round" stroke-linejoin="round"/>
<path d="M7.33301 4.3999H10.2663" stroke="white" stroke-opacity="0.75" stroke-width="1.46667" stroke-linecap="round" stroke-linejoin="round"/>
<path d="M7.33301 7.33301H10.2663" stroke="white" stroke-opacity="0.75" stroke-width="1.46667" stroke-linecap="round" stroke-linejoin="round"/>
<path d="M7.33301 10.2666H10.2663" stroke="white" stroke-opacity="0.75" stroke-width="1.46667" stroke-linecap="round" stroke-linejoin="round"/>
<path d="M7.33301 13.1997H10.2663" stroke="white" stroke-opacity="0.75" stroke-width="1.46667" stroke-linecap="round" stroke-linejoin="round"/>
</g>
<defs>
<clipPath id="clip0_1072_701">
<rect width="17.6" height="17.6" fill="white"/>
</clipPath>
</defs>
</svg>
