<svg width="18" height="18" viewBox="0 0 18 18" fill="none" xmlns="http://www.w3.org/2000/svg">
<g clip-path="url(#clip0_1072_691)">
<path d="M11.9091 5.69043L10.5862 9.6585C10.5142 9.87452 10.3928 10.0708 10.2318 10.2318C10.0708 10.3928 9.87452 10.5142 9.6585 10.5862L5.69043 11.9091L7.01336 7.94103C7.08536 7.725 7.20668 7.52871 7.36769 7.36769C7.52871 7.20668 7.725 7.08536 7.94103 7.01336L11.9091 5.69043Z" stroke="white" stroke-opacity="0.75" stroke-width="1.46667" stroke-linecap="round" stroke-linejoin="round"/>
<path d="M8.79915 16.1335C12.8492 16.1335 16.1325 12.8502 16.1325 8.80013C16.1325 4.75004 12.8492 1.4668 8.79915 1.4668C4.74907 1.4668 1.46582 4.75004 1.46582 8.80013C1.46582 12.8502 4.74907 16.1335 8.79915 16.1335Z" stroke="white" stroke-opacity="0.75" stroke-width="1.46667" stroke-linecap="round" stroke-linejoin="round"/>
</g>
<defs>
<clipPath id="clip0_1072_691">
<rect width="17.6" height="17.6" fill="white"/>
</clipPath>
</defs>
</svg>
