<svg width="18" height="18" viewBox="0 0 18 18" fill="none" xmlns="http://www.w3.org/2000/svg">
<g clip-path="url(#clip0_1072_801)">
<path d="M8.7998 5.13281V15.3995" stroke="white" stroke-opacity="0.75" stroke-width="1.46667" stroke-linecap="round" stroke-linejoin="round"/>
<path d="M2.19915 13.1997C2.00466 13.1997 1.81814 13.1224 1.68061 12.9849C1.54308 12.8474 1.46582 12.6609 1.46582 12.4664V2.93304C1.46582 2.73855 1.54308 2.55202 1.68061 2.4145C1.81814 2.27697 2.00466 2.19971 2.19915 2.19971H5.86582C6.64379 2.19971 7.38989 2.50875 7.94 3.05886C8.49011 3.60897 8.79915 4.35507 8.79915 5.13304C8.79915 4.35507 9.1082 3.60897 9.65831 3.05886C10.2084 2.50875 10.9545 2.19971 11.7325 2.19971H15.3992C15.5936 2.19971 15.7802 2.27697 15.9177 2.4145C16.0552 2.55202 16.1325 2.73855 16.1325 2.93304V12.4664C16.1325 12.6609 16.0552 12.8474 15.9177 12.9849C15.7802 13.1224 15.5936 13.1997 15.3992 13.1997H10.9992C10.4157 13.1997 9.8561 13.4315 9.44352 13.8441C9.03094 14.2567 8.79915 14.8162 8.79915 15.3997C8.79915 14.8162 8.56737 14.2567 8.15479 13.8441C7.74221 13.4315 7.18263 13.1997 6.59915 13.1997H2.19915Z" stroke="white" stroke-opacity="0.75" stroke-width="1.46667" stroke-linecap="round" stroke-linejoin="round"/>
</g>
<defs>
<clipPath id="clip0_1072_801">
<rect width="17.6" height="17.6" fill="white"/>
</clipPath>
</defs>
</svg>
