<svg width="18" height="18" viewBox="0 0 18 18" fill="none" xmlns="http://www.w3.org/2000/svg">
<g clip-path="url(#clip0_1072_786)">
<path d="M10.7792 4.61987C10.6448 4.75695 10.5696 4.94125 10.5696 5.1332C10.5696 5.32516 10.6448 5.50946 10.7792 5.64654L11.9525 6.81987C12.0896 6.95424 12.2739 7.0295 12.4659 7.0295C12.6578 7.0295 12.8421 6.95424 12.9792 6.81987L15.7439 4.0552C16.1126 4.87008 16.2243 5.77798 16.0639 6.65791C15.9036 7.53785 15.4789 8.34802 14.8465 8.98048C14.214 9.61293 13.4039 10.0376 12.5239 10.1979C11.644 10.3583 10.7361 10.2466 9.92121 9.87787L4.85388 14.9452C4.56214 15.2369 4.16646 15.4008 3.75388 15.4008C3.3413 15.4008 2.94562 15.2369 2.65388 14.9452C2.36214 14.6535 2.19824 14.2578 2.19824 13.8452C2.19824 13.4326 2.36214 13.0369 2.65388 12.7452L7.72121 7.67787C7.35246 6.863 7.24082 5.9551 7.40114 5.07516C7.56147 4.19523 7.98615 3.38505 8.61861 2.7526C9.25106 2.12015 10.0612 1.69546 10.9412 1.53514C11.8211 1.37481 12.729 1.48646 13.5439 1.8552L10.7865 4.61254L10.7792 4.61987Z" stroke="white" stroke-opacity="0.75" stroke-width="1.46667" stroke-linecap="round" stroke-linejoin="round"/>
</g>
<defs>
<clipPath id="clip0_1072_786">
<rect width="17.6" height="17.6" fill="white"/>
</clipPath>
</defs>
</svg>
