<svg width="144" height="44" viewBox="0 0 144 44" fill="none" xmlns="http://www.w3.org/2000/svg">
<g clip-path="url(#clip0_79_270)">
<path fill-rule="evenodd" clip-rule="evenodd" d="M12.4834 6.15974C13.3417 5.18168 14.1238 4.34694 14.871 3.64797C2.24187 3.23814 5.9181 12.4379 1.80277 21.7873C-2.93628 32.5547 2.36038 36.658 10.253 37.9365C9.15896 36.6354 8.26579 35.1469 7.58593 33.5403C2.46891 27.0484 4.52844 15.2212 12.4834 6.15974Z" fill="#B3D234"/>
<path fill-rule="evenodd" clip-rule="evenodd" d="M42.8724 17.6299C41.6973 20.9651 39.5405 24.7076 36.4917 28.391C34.1153 31.2611 31.4732 33.5214 28.7463 35.1582C25.594 37.2162 21.6833 38.4306 17.311 38.4306C14.8635 38.4306 12.4572 38.2935 10.2529 37.9365C11.5553 39.4841 13.1383 40.7689 14.9795 41.6652C26.3974 47.2293 27.1184 36.8931 39.1987 31.6483C45.9823 28.7028 46.0072 22.9451 42.8724 17.6299Z" fill="#0095D9"/>
<path fill-rule="evenodd" clip-rule="evenodd" d="M28.7417 6.87296C30.4258 7.18222 32.0238 7.74039 33.4546 8.55502C37.2892 10.7412 40.7821 14.0864 42.8715 17.6291C44.9286 11.7909 43.9705 7.20108 39.4698 6.3701C34.5236 5.45868 30.6565 5.16576 26.9404 2.5509C22.3635 -0.669896 18.3517 0.39239 14.8701 3.64839C15.1159 3.65593 15.3666 3.66725 15.6248 3.68233C20.4549 3.96896 25.0642 4.91685 28.7417 6.87296Z" fill="#EEE809"/>
<path fill-rule="evenodd" clip-rule="evenodd" d="M12.483 6.15972C4.52801 15.2212 2.46848 27.0484 7.5855 33.5403C5.2877 28.1057 5.44738 21.3271 8.68575 15.9151C12.9969 8.70921 21.6442 5.56761 28.7422 6.87378C25.0647 4.91641 20.4554 3.96978 15.6265 3.68189C15.3671 3.66681 15.1163 3.65675 14.8706 3.64795C14.1234 4.34692 13.3412 5.18166 12.483 6.15972Z" fill="#51B849"/>
<path fill-rule="evenodd" clip-rule="evenodd" d="M33.455 8.55608C32.0242 7.7402 30.4262 7.18328 28.7422 6.87402C33.5848 9.44991 36.8069 13.7783 36.7708 20.6724C36.7383 26.6539 33.6721 31.9402 28.7459 35.1585C31.4728 33.5217 34.1162 31.2613 36.4913 28.3913C39.5413 24.7079 41.6969 20.9653 42.872 17.6301C40.7825 14.0875 37.2897 10.741 33.455 8.55608Z" fill="#00845D"/>
<path fill-rule="evenodd" clip-rule="evenodd" d="M27.9452 31.8801C22.4777 35.4202 15.1876 33.8412 11.6611 28.3525C8.13455 22.8638 9.87848 15.7962 15.1739 12.0021C21.0955 7.76052 28.69 9.43378 31.4581 15.5297C34.1575 21.4734 33.4116 28.3399 27.9452 31.8801ZM28.7424 6.87298C21.6444 5.56807 12.9971 8.70841 8.68592 15.9143C5.44755 21.3263 5.28663 28.1061 7.58568 33.5395C8.26553 35.1461 9.15746 36.6358 10.2527 37.937C12.457 38.294 14.8633 38.4298 17.3095 38.4298C21.6831 38.4298 25.5938 37.2154 28.7449 35.1574C33.6723 31.9404 36.7385 26.6529 36.7697 20.6714C36.8071 13.7772 33.5837 9.44887 28.7424 6.87298Z" fill="#005121"/>
<path fill-rule="evenodd" clip-rule="evenodd" d="M119.148 16.1506C117.914 16.1506 116.726 16.48 115.619 17.1299C114.51 17.7798 113.633 18.6661 113.011 19.7649C112.389 20.8649 112.073 22.1107 112.073 23.4684C112.073 25.5 112.752 27.1657 114.147 28.5636C115.542 29.9603 117.179 30.6404 119.148 30.6404C120.447 30.6404 121.666 30.3186 122.771 29.6837C123.874 29.0514 124.745 28.1739 125.362 27.0764C125.981 25.9752 126.294 24.7331 126.294 23.3829C126.294 22.0428 125.981 20.8158 125.364 19.736C124.746 18.6573 123.864 17.7811 122.74 17.1312C121.616 16.48 120.408 16.1506 119.148 16.1506ZM119.214 33.2402C116.472 33.2402 114.123 32.2797 112.233 30.3852C110.343 28.4907 109.385 26.165 109.385 23.4747C109.385 21.6845 109.82 20.0025 110.681 18.4725C111.542 16.9413 112.732 15.7257 114.22 14.857C115.707 13.9896 117.339 13.5508 119.069 13.5508C121.867 13.5508 124.245 14.5062 126.135 16.3932C128.024 18.2802 128.984 20.6336 128.984 23.3892C128.984 26.1197 128.027 28.4693 126.142 30.3726C124.256 32.276 121.926 33.2402 119.214 33.2402ZM138.191 33.2404C137.032 33.2404 135.964 32.9236 135.018 32.2988C134.084 31.6816 133.22 30.6482 132.447 29.2264C132.338 29.0252 132.405 28.7725 132.601 28.6531L134.114 27.7392C134.321 27.6135 134.59 27.6876 134.705 27.9026C135.686 29.7192 136.801 30.6407 138.021 30.6407C138.545 30.6407 139.044 30.5149 139.503 30.2698C139.961 30.0247 140.298 29.7091 140.533 29.3043C140.77 28.8957 140.886 28.4759 140.886 28.0208C140.886 27.5066 140.714 27.0088 140.359 26.5009C139.83 25.7441 138.836 24.8088 137.402 23.7188C135.87 22.5535 134.935 21.7225 134.544 21.1781C133.866 20.2667 133.519 19.2572 133.519 18.1836C133.519 17.3313 133.726 16.5405 134.134 15.8353C134.542 15.1275 135.124 14.5631 135.864 14.157C136.598 13.7547 137.405 13.5498 138.263 13.5498C139.172 13.5498 140.034 13.7799 140.825 14.2337C141.616 14.6875 142.417 15.482 143.275 16.6637C143.412 16.8523 143.374 17.1163 143.189 17.2571L141.738 18.3672C141.55 18.5105 141.283 18.4728 141.141 18.2842C140.508 17.4381 139.973 16.8812 139.55 16.626C139.142 16.3796 138.71 16.2602 138.227 16.2602C137.617 16.2602 137.138 16.4362 136.761 16.7995C136.389 17.1578 136.208 17.5865 136.208 18.1107C136.208 18.4388 136.278 18.7619 136.414 19.0699C136.553 19.3867 136.821 19.745 137.209 20.136C137.355 20.278 137.869 20.7017 139.459 21.8872C141.056 23.0739 142.126 24.1111 142.733 25.0577C143.348 26.0194 143.659 27.0037 143.659 27.9843C143.659 29.3999 143.122 30.6432 142.061 31.6803C141.004 32.7162 139.703 33.2404 138.191 33.2404ZM105.19 32.7892H103.01C102.891 32.7892 102.785 32.7163 102.74 32.6057L99.9757 25.9177C99.9071 25.7455 99.6664 25.7455 99.5978 25.9177L96.8247 32.6057C96.7798 32.7163 96.6725 32.7892 96.554 32.7892H94.3722C94.1601 32.7892 94.0192 32.568 94.109 32.3731L98.0858 23.4738C98.1944 23.24 98.1944 22.9684 98.0871 22.7346L94.5032 14.6424C94.366 14.3432 94.5843 14.0012 94.9123 14.0012H96.7473C96.9245 14.0012 97.0841 14.1094 97.149 14.2753L99.5978 20.248C99.6689 20.4315 99.9271 20.4315 99.9994 20.248L102.464 14.2715C102.529 14.1081 102.685 14.0012 102.86 14.0012H104.715C105.027 14.0012 105.232 14.3268 105.101 14.611L101.496 22.722C101.388 22.9584 101.388 23.2299 101.496 23.4663L105.455 32.3744C105.543 32.568 105.402 32.7892 105.19 32.7892ZM58.2832 14.5105C58.2832 14.2302 58.509 14.0014 58.7884 14.0014H65.2078C68.3663 14.0014 70.9261 16.5823 70.9261 19.7654V19.9213C70.9261 23.1421 68.3351 25.7531 65.1392 25.7531H61.2322C61.0463 25.7531 60.8954 25.9053 60.8954 26.0926V32.2802C60.8954 32.5618 60.6696 32.7894 60.3901 32.7894H58.7884C58.509 32.7894 58.2832 32.5618 58.2832 32.2802V14.5105ZM60.8954 22.7813C60.8954 22.9686 61.0463 23.1207 61.2322 23.1207H65.4847C67.0478 23.1207 68.3152 21.8434 68.3152 20.2695V19.5378C68.3152 17.9337 67.0241 16.6338 65.4323 16.6338H61.2322C61.0463 16.6338 60.8954 16.7859 60.8954 16.9733V22.7813ZM88.0046 32.7889C87.825 32.7889 87.6603 32.6845 87.5842 32.5198L86.1771 29.5102C86.0998 29.3468 85.9351 29.2412 85.7542 29.2412H76.9734C76.7938 29.2412 76.6291 29.3456 76.5518 29.5102L75.1372 32.5211C75.0599 32.6845 74.8964 32.7889 74.7156 32.7889H72.8232C72.4814 32.7889 72.2556 32.4306 72.4016 32.1188L80.7694 14.2699C80.8468 14.1065 81.0102 14.0009 81.1911 14.0009H81.574C81.7562 14.0009 81.9208 14.1065 81.9969 14.2724L90.2562 32.1213C90.401 32.4318 90.1752 32.7889 89.8334 32.7889H88.0046ZM78.055 26.3108C77.9714 26.4868 78.0999 26.6905 78.2932 26.6905H84.412C84.619 26.6905 84.7563 26.473 84.6677 26.2844L81.6439 19.8189C81.5366 19.5889 81.2123 19.5889 81.105 19.8177L78.055 26.3108Z" fill="white"/>
</g>
<defs>
<clipPath id="clip0_79_270">
<rect width="143.805" height="44" fill="white"/>
</clipPath>
</defs>
</svg>
