<svg width="149" height="48" viewBox="0 0 149 48" fill="none" xmlns="http://www.w3.org/2000/svg">
<path d="M46.6328 13.5018L51.6887 12.9399V17.7853H56.0775V21.9986H51.6536V28.5292C51.6536 30.0741 52.3089 30.8465 53.6198 30.8465C54.4624 30.8465 55.1646 30.706 55.7264 30.4252L56.8851 34.6384C55.7381 35.0832 54.5209 35.3407 53.2336 35.4109C51.1971 35.5045 49.5821 35.0246 48.3883 33.9713C47.2179 32.8946 46.6328 31.0805 46.6328 28.5292V21.9986H43.543V17.7853H46.6328V13.5018Z" fill="white"/>
<path d="M74.9993 28.0027H62.2541C62.3945 28.8921 62.8743 29.6294 63.6936 30.2145C64.5129 30.7764 65.6013 31.0572 66.9589 31.0572C68.9017 31.0572 70.3997 30.6008 71.4531 29.6879L74.2971 32.8479C72.565 34.5567 70.0837 35.411 66.8535 35.411C63.7639 35.411 61.3646 34.5801 59.6559 32.9181C57.9705 31.2563 57.1279 29.0092 57.1279 26.1768C57.1279 23.5085 57.9588 21.355 59.6208 19.7165C61.2826 18.0546 63.518 17.2236 66.327 17.2236C69.3932 17.2236 71.734 18.1599 73.349 20.0325C74.9876 21.905 75.5377 24.5618 74.9993 28.0027ZM62.2541 24.316H70.4699C70.4231 23.4265 70.0019 22.7477 69.206 22.2796C68.4102 21.788 67.4505 21.5422 66.327 21.5422C65.3204 21.5422 64.4544 21.788 63.7287 22.2796C63.0031 22.7711 62.5115 23.4499 62.2541 24.316Z" fill="white"/>
<path d="M79.2147 13.5018L84.2707 12.9399V17.7853H88.6596V21.9986H84.2356V28.5292C84.2356 30.0741 84.891 30.8465 86.2017 30.8465C87.0444 30.8465 87.7466 30.706 88.3085 30.4252L89.4671 34.6384C88.3202 35.0832 87.1029 35.3407 85.8156 35.4109C83.7791 35.5045 82.164 35.0246 80.9703 33.9713C79.7999 32.8946 79.2147 31.0805 79.2147 28.5292V21.9986H76.125V17.7853H79.2147V13.5018Z" fill="white"/>
<path d="M91.3633 10.4473H96.4536V19.8219C97.6946 18.2068 99.4507 17.3992 101.721 17.3992C106.332 17.3992 108.637 20.173 108.637 25.7205V35.0248H103.581V25.7556C103.581 24.5618 103.278 23.6372 102.669 22.9818C102.084 22.3265 101.288 21.9988 100.281 21.9988C99.1814 21.9988 98.2566 22.3733 97.5073 23.1223C96.7814 23.8713 96.4185 24.913 96.4185 26.2471V35.0248H91.3633V10.4473Z" fill="white"/>
<path d="M128.465 28.0027H115.72C115.861 28.8921 116.341 29.6294 117.159 30.2145C117.979 30.7764 119.067 31.0572 120.426 31.0572C122.368 31.0572 123.866 30.6008 124.919 29.6879L127.764 32.8479C126.031 34.5567 123.55 35.411 120.32 35.411C117.229 35.411 114.831 34.5801 113.123 32.9181C111.437 31.2563 110.594 29.0092 110.594 26.1768C110.594 23.5085 111.425 21.355 113.087 19.7165C114.749 18.0546 116.984 17.2236 119.793 17.2236C122.859 17.2236 125.2 18.1599 126.815 20.0325C128.453 21.905 129.004 24.5618 128.465 28.0027ZM115.72 24.316H123.937C123.89 23.4265 123.468 22.7477 122.672 22.2796C121.876 21.788 120.916 21.5422 119.793 21.5422C118.787 21.5422 117.92 21.788 117.194 22.2796C116.47 22.7711 115.978 23.4499 115.72 24.316Z" fill="white"/>
<path d="M130.564 17.7158H135.27L135.656 19.6117C136.756 18.0669 138.301 17.2944 140.291 17.2944C141.929 17.2944 143.345 17.821 144.539 18.8743L142.432 22.8769C141.613 22.2918 140.689 21.9993 139.659 21.9993C138.511 21.9993 137.553 22.3621 136.78 23.0877C136.007 23.7899 135.621 24.7612 135.621 26.0019V35.0253H130.564V17.7158Z" fill="white"/>
<path d="M9.49121 20.6368C10.4479 21.6973 14.35 22.4925 19.0207 22.4927C23.6914 22.4925 27.5935 21.6973 28.548 20.6368C27.7396 19.7368 24.8093 19.0283 21.0884 18.8345V21.0779C20.4216 21.1114 19.7284 21.1292 19.0197 21.1292C18.3109 21.1292 17.6176 21.1137 16.9509 21.0779V18.8345C13.2322 19.0283 10.3018 19.7368 9.49121 20.6368Z" fill="white"/>
<path fill-rule="evenodd" clip-rule="evenodd" d="M31.4118 7.75074L37.784 18.7563V18.7585C38.114 19.3289 38.0165 20.0485 37.5448 20.5119L20.0029 37.7355C19.4337 38.2948 18.519 38.2948 17.9519 37.7355L0.432241 20.5342C-0.0483448 20.0597 -0.139194 19.32 0.215187 18.7452L7.02592 7.71503C7.29168 7.28736 7.76348 7.02441 8.27064 7.02441H30.147C30.6698 7.02441 31.1504 7.30071 31.4118 7.75074ZM21.0906 15.027V17.1679H21.0884C25.4649 17.3973 28.7497 18.3375 28.774 19.4648V21.813C28.7497 22.9403 25.4649 23.8782 21.0884 24.1077V29.3633H16.9509V24.1077C12.5744 23.8782 9.29187 22.9403 9.26752 21.813V19.4648C9.29187 18.3375 12.5744 17.3973 16.9509 17.1679V15.027H10.7205V11.939H27.321V15.027H21.0906Z" fill="white"/>
</svg>
