<svg width="212" height="30" viewBox="0 0 212 30" fill="none" xmlns="http://www.w3.org/2000/svg">
<path d="M56.5183 22.0268C57.0486 22.2401 57.8345 22.3775 58.8761 22.4408V22.8866H47.1211V22.4408C48.1606 22.3775 48.9486 22.2401 49.4789 22.0268C50.0092 21.8155 50.3768 21.4754 50.5775 21.0063C50.7782 20.5394 50.8796 19.8486 50.8796 18.9359V4.72606H50.7845L42.7246 23.3007H42.6296L33.9951 4.79155H33.9V18.9359C33.9 19.8486 34.0056 20.5394 34.219 21.0063C34.4303 21.4732 34.7979 21.8134 35.3176 22.0268C35.8373 22.2401 36.619 22.3775 37.6585 22.4408V22.8866H28.6901V22.4408C29.7296 22.3775 30.5113 22.2401 31.031 22.0268C31.5507 21.8155 31.9183 21.4754 32.1296 21.0063C32.3408 20.5394 32.4486 19.8486 32.4486 18.9359V4.69437C32.4486 3.78169 32.343 3.09085 32.1296 2.62394C31.9162 2.15704 31.5507 1.8169 31.031 1.60352C30.5092 1.39225 29.7296 1.25282 28.6901 1.18944V0.743662H36.7352L44.0831 16.7852L51.2092 0.743662H58.8761V1.18944C57.8345 1.25282 57.0486 1.39225 56.5183 1.60352C55.988 1.8169 55.6162 2.16127 55.4028 2.63873C55.1894 3.1162 55.0838 3.8007 55.0838 4.69437V18.9359C55.0838 19.8486 55.1894 20.5394 55.4028 21.0063C55.6162 21.4754 55.988 21.8134 56.5183 22.0268ZM72.4901 11.2901C73.1472 12.5007 73.4768 13.8697 73.4768 15.3993C73.4768 16.9289 73.1472 18.2979 72.4901 19.5085C71.831 20.719 70.9141 21.6549 69.7352 22.312C68.5563 22.9711 67.2127 23.3007 65.7042 23.3007C64.1958 23.3007 62.8585 22.9711 61.6901 22.312C60.5218 21.6549 59.6028 20.719 58.9352 19.5085C58.2655 18.2979 57.9317 16.9289 57.9317 15.3993C57.9317 13.8697 58.2655 12.5007 58.9352 11.2901C59.6049 10.0796 60.5218 9.14577 61.6901 8.48662C62.8585 7.82747 64.1958 7.49789 65.7042 7.49789C67.2127 7.49789 68.5563 7.82747 69.7352 8.48662C70.9141 9.14577 71.831 10.0796 72.4901 11.2901ZM69.3042 15.3993C69.3042 13.8908 69.1606 12.5958 68.8732 11.512C68.5859 10.4282 68.1718 9.60634 67.631 9.04225C67.0901 8.48028 66.4458 8.19718 65.7042 8.19718C64.9606 8.19718 64.3183 8.47817 63.7775 9.04225C63.2366 9.60634 62.8225 10.4282 62.5352 11.512C62.2479 12.5958 62.1042 13.8908 62.1042 15.3993C62.1042 16.9077 62.2479 18.2028 62.5352 19.2866C62.8225 20.3704 63.2366 21.1923 63.7775 21.7563C64.3183 22.3204 64.9606 22.6014 65.7042 22.6014C66.4479 22.6014 67.0901 22.3204 67.631 21.7563C68.1718 21.1944 68.5859 20.3704 68.8732 19.2866C69.1606 18.2028 69.3042 16.9077 69.3042 15.3993ZM84.2789 10.9077C84.8303 10.9077 85.331 11.0028 85.7768 11.1951V7.69014C85.5 7.56338 85.1725 7.5 84.7901 7.5C83.812 7.5 82.9479 7.93099 82.1937 8.79085C81.4394 9.65071 80.8521 10.6394 80.307 12.6085H80.2352V7.62676H80.1085L73.8 9.44366V9.85775C74.5225 9.85775 75.0803 9.92747 75.4732 10.0648C75.8662 10.2021 76.1472 10.4261 76.3183 10.7345C76.4873 11.043 76.5739 11.4613 76.5739 11.9937V19.8951C76.5739 20.5542 76.5106 21.0423 76.3838 21.3613C76.257 21.6803 76.0225 21.919 75.6824 22.0775C75.3423 22.2359 74.8014 22.3585 74.0577 22.443V22.8887H82.9141V22.443C82.1704 22.3796 81.6127 22.2676 81.2408 22.1092C80.869 21.9507 80.6092 21.7056 80.4613 21.3761C80.3134 21.0465 80.2373 20.5521 80.2373 19.8951V13.6331C80.9049 12.0634 82.3754 10.9077 84.2789 10.9077ZM130.768 21.3423C130.642 21.0127 130.578 20.5204 130.578 19.8613V12.5958C130.578 9.1838 128.689 7.49789 126.213 7.49789C123.737 7.49789 122.146 9.25141 121.466 10.1852H121.403V7.62676H121.276L114.968 9.44366V9.85775C115.669 9.85775 116.22 9.92747 116.624 10.0648C117.027 10.2021 117.315 10.4197 117.484 10.7176C117.653 11.0155 117.739 11.4296 117.739 11.9599V19.8592C117.739 20.5183 117.676 21.0127 117.549 21.3401C117.423 21.6697 117.188 21.9127 116.848 22.0732C116.508 22.2317 115.967 22.3542 115.223 22.4387V22.8845H123.507V22.4387C122.935 22.3542 122.493 22.2317 122.185 22.0732C121.876 21.9148 121.669 21.6697 121.563 21.3401C121.458 21.0106 121.405 20.5183 121.405 19.8592V11.343C122.138 10.4535 123 9.6 124.401 9.6C126.325 9.6 126.917 11.0514 126.917 12.6908V19.8592C126.917 20.5183 126.858 21.0127 126.742 21.3401C126.625 21.6697 126.423 21.9127 126.135 22.0732C125.848 22.2317 125.408 22.3542 124.813 22.4387V22.8845H133.001V22.4387C132.3 22.3542 131.785 22.2317 131.457 22.0732C131.123 21.9148 130.897 21.6718 130.768 21.3423ZM211.268 18.4901C210.564 20.0261 208.601 23.3007 204.608 23.3007C200.816 23.3007 197.664 20.1993 197.664 15.5282C197.664 14.062 197.983 12.7141 198.619 11.4824C199.257 10.2507 200.121 9.27887 201.215 8.5669C202.31 7.85493 203.514 7.5 204.832 7.5C208.658 7.5 210.566 10.1958 210.566 13.0056V13.6394H201.074C201.074 13.6965 201.072 13.7514 201.072 13.8085C201.072 17.1887 202.576 20.4359 206.36 20.4359C209.237 20.4359 210.442 18.843 210.915 18.2704L211.268 18.4901ZM201.139 12.5641H207.093C207.053 10.2549 206.364 8.23944 204.482 8.23099C202.715 8.22465 201.435 9.87254 201.139 12.5641ZM169.012 21.3423C168.885 21.0127 168.822 20.5204 168.822 19.8613V12.5958C168.822 11.4908 168.636 10.557 168.264 9.79225C167.892 9.02746 167.377 8.45493 166.72 8.07254C166.061 7.69014 165.306 7.5 164.457 7.5C163.479 7.5 162.615 7.7493 161.861 8.24789C161.106 8.74648 160.39 9.46479 159.71 10.3986H159.646V0H159.52L153.211 1.8169V2.23099C153.913 2.23099 154.464 2.3007 154.868 2.43803C155.271 2.57535 155.558 2.79296 155.727 3.09085C155.896 3.38873 155.983 3.80282 155.983 4.3331V19.8592C155.983 20.5183 155.92 21.0127 155.793 21.3401C155.666 21.6697 155.432 21.9127 155.092 22.0732C154.751 22.2317 154.211 22.3542 153.467 22.4387V22.8845H161.751V22.4387C161.178 22.3542 160.737 22.2317 160.428 22.0732C160.12 21.9148 159.913 21.6697 159.807 21.3401C159.701 21.0106 159.649 20.5183 159.649 19.8592V11.343C160.382 10.4535 161.244 9.6 162.644 9.6C163.43 9.6 164.045 9.85986 164.493 10.3796C164.939 10.8993 165.163 11.6704 165.163 12.6887V19.8592C165.163 20.5183 165.104 21.0127 164.987 21.3401C164.871 21.6697 164.668 21.9127 164.381 22.0732C164.094 22.2317 163.654 22.3542 163.058 22.4387V22.8845H171.247V22.4387C170.546 22.3542 170.03 22.2317 169.703 22.0732C169.367 21.9148 169.141 21.6718 169.012 21.3423ZM145.872 21.5113C141.173 21.543 137.446 17.7655 137.446 11.6366C137.446 5.15916 140.918 1.38169 144.887 1.38169C148.857 1.38169 150.56 4.95845 151.428 8.47183L152.064 8.46127V1.99648C150.573 1.17042 148.126 0.238732 144.57 0.238732C137.713 0.238732 132.537 5.25634 132.537 11.9556C132.537 18.338 136.855 23.3852 144.285 23.3535C148.382 23.3218 151.238 20.8775 152.603 19.0035L152.159 18.5282C151.238 19.5761 149.396 21.4796 145.872 21.5113ZM193.173 14.0303L190.975 12.9782C189.516 12.3254 188.681 11.4613 188.681 10.3986C188.681 9.19437 189.784 8.37042 191.326 8.37042C193.572 8.37042 194.736 9.61268 195.218 12.3739H195.881V8.35986C195.222 8.10423 193.481 7.5 191.708 7.5C188.204 7.5 186.07 9.70352 186.07 12.2472C186.07 13.2254 186.33 14.0789 186.849 14.812C187.369 15.5451 188.151 16.1768 189.19 16.707L191.484 17.8542C193.054 18.5704 193.684 19.2761 193.684 20.3387C193.684 21.5134 192.737 22.4324 190.944 22.4324C188.322 22.4324 187.075 19.9458 186.733 17.9493H186.07V22.0585C187.069 22.7049 188.949 23.3007 190.69 23.3007C194.049 23.3007 196.392 21.243 196.392 18.3317C196.39 16.2338 195.27 14.9218 193.173 14.0303ZM19.0204 13.2338V18.9359C19.0204 19.8275 19.1472 20.512 19.4028 20.9916C19.6584 21.469 20.0831 21.8155 20.6768 22.0268C21.2704 22.2401 22.1746 22.3775 23.3852 22.4408V22.8866H11.0556V22.4408C12.0951 22.3775 12.8768 22.2401 13.3965 22.0268C13.9162 21.8155 14.2838 21.4754 14.4951 21.0063C14.7063 20.5394 14.8141 19.8486 14.8141 18.9359V4.79155C14.8141 1.87817 13.4979 1.28662 11.4993 1.28662C9.30634 1.28662 7.96479 1.87606 7.96479 4.69648V20.5225C7.96479 24.0993 5.64084 27.5007 1.05211 27.5007C0.697183 27.5007 0.346479 27.4796 0 27.4394V27.057C1.09014 26.9916 1.97324 26.6218 2.64507 25.9394C3.38873 25.1852 3.76056 23.9493 3.76056 22.2275V4.69437C3.76056 3.80282 3.65493 3.1162 3.44155 2.63873C3.22817 2.16127 2.85634 1.8169 2.32606 1.60352C1.79577 1.39225 1.02042 1.25282 0 1.18944V0.743662H21.7711C26.7232 0.743662 29.7887 3.21972 29.7887 6.95704C29.7887 11.2352 25.5866 13.2338 21.8303 13.2338H19.0204ZM19.0204 12.3782H20.5394C23.1232 12.3782 25.2972 10.8655 25.2972 6.98873C25.2972 2.25 22.1683 1.5993 20.6176 1.5993H19.0204V12.3782ZM113.683 21.6148C114.209 21.6148 114.672 21.3845 114.965 21.1859V21.9423C114.378 22.4916 113.288 23.2901 111.649 23.2901C110.267 23.2901 109.107 22.4134 108.799 21.0761H108.716C108.177 22.0944 106.532 23.381 104.736 23.381C102.581 23.381 100.994 21.9444 100.994 19.7599C100.994 18.0528 102.163 16.9162 104.106 16.2275L108.716 14.5669V12.4268C108.716 10.481 107.309 9.5831 105.784 9.5831C104.227 9.5831 102.79 10.2423 101.294 11.7676L100.846 11.3493C102.163 9.22394 104.258 7.48732 107.282 7.48732C110.155 7.48732 112.46 9.37394 112.43 12.4268L112.371 20.0599C112.367 21.1352 112.817 21.6148 113.683 21.6148ZM108.716 15.5641L106.861 16.3162C105.425 16.8845 104.497 17.5437 104.497 19.069C104.497 20.3556 105.395 21.2535 106.652 21.2535C107.311 21.2535 108.268 20.7444 108.718 20.1761V15.5641H108.716ZM184.016 21.6148C184.544 21.6148 185.005 21.3824 185.301 21.1859V21.9423C184.713 22.4916 183.623 23.2923 181.982 23.2923C180.6 23.2923 179.44 22.4155 179.132 21.0782H179.049C178.511 22.0965 176.865 23.3831 175.069 23.3831C172.914 23.3831 171.327 21.9465 171.327 19.762C171.327 18.0549 172.496 16.9183 174.439 16.2296L179.049 14.569V12.4268C179.049 10.481 177.642 9.5831 176.117 9.5831C174.56 9.5831 173.123 10.2423 171.627 11.7676L171.177 11.3493C172.494 9.22394 174.589 7.48732 177.613 7.48732C180.486 7.48732 182.791 9.37394 182.761 12.4268L182.702 20.0599C182.7 21.1352 183.148 21.6148 184.016 21.6148ZM179.047 15.5641L177.192 16.3162C175.756 16.8845 174.828 17.5437 174.828 19.069C174.828 20.3556 175.726 21.2535 176.983 21.2535C177.642 21.2535 178.599 20.7444 179.049 20.1761V15.5641H179.047ZM97.2106 8.54578C98.5732 9.60845 99.1754 11.138 99.1754 12.4437C99.1754 15.8725 96.2451 17.6493 92.9091 17.6493C92.0303 17.6493 91.181 17.5246 90.4056 17.2796C89.9746 17.6113 89.6049 18.0444 89.6049 18.5514C89.6049 19.6416 91.3817 19.8613 92.4423 19.9225L96.0592 20.1718C98.9577 20.3599 100.796 21.3866 100.796 23.9746C100.796 27.2472 96.9254 29.9599 91.2887 29.9599C88.0162 29.9599 85.6775 28.838 85.6775 26.8416C85.6775 25.107 86.6324 24.1141 89.0873 22.9352C87.4817 22.4683 87.1099 21.5113 87.1099 20.5754C87.1099 19.2951 88.2528 18.1458 89.8014 17.0556C87.9465 16.2739 86.643 14.7254 86.643 12.4394C86.643 9.01056 89.5732 7.2338 92.9091 7.2338C94.443 7.2338 95.6641 7.58239 96.6042 8.12958C97.3056 6.72042 98.6894 5.08099 101.17 5.08099V8.00704C99.8451 7.59718 98.2289 7.81056 97.2106 8.54578ZM88.2951 25.4746C88.2951 27.2831 90.3528 28.0923 93.0338 28.0923C95.5901 28.0923 99.0486 26.9387 99.0486 25.0986C99.0486 24.038 98.457 23.7887 96.8979 23.6641L90.6338 23.1993C90.2662 23.1718 89.9345 23.1296 89.6366 23.0725C88.7345 23.7761 88.2951 24.4986 88.2951 25.4746ZM95.3092 12.4458C95.3092 9.51549 94.3437 8.11268 92.9091 8.11268C91.4746 8.11268 90.5092 9.51549 90.5092 12.4458C90.5092 15.3761 91.4746 16.7789 92.9091 16.7789C94.3437 16.7789 95.3092 15.3761 95.3092 12.4458Z" fill="white"/>
</svg>
