<svg width="215" height="32" viewBox="0 0 215 32" fill="none" xmlns="http://www.w3.org/2000/svg">
<path d="M27.9297 30.4765V0.947266H34.6557V30.4765H27.9297ZM158.678 19.444C158.678 12.3078 153.141 7.87846 146.661 7.87846C140.14 7.87846 134.645 12.3488 134.645 19.444C134.645 26.5802 140.182 31.0507 146.661 31.0507C153.141 31.0507 158.678 26.5392 158.678 19.444ZM152.034 19.444C152.034 23.1762 149.532 25.2679 146.62 25.2679C143.709 25.2679 141.207 23.1762 141.207 19.444C141.207 15.6708 143.709 13.6612 146.62 13.6612C149.532 13.6612 152.034 15.6708 152.034 19.444ZM25.2228 21.9868C25.2228 18.6648 23.5004 16.122 20.4243 14.9737C23.3363 13.3741 24.3615 11.2825 24.3615 8.82172C24.3615 4.51544 21.2446 0.947266 14.2725 0.988389H0.902344V30.5174H14.8467C21.8598 30.4765 25.2228 26.9904 25.2228 21.9868ZM17.2253 9.68304C17.2253 11.6926 15.954 12.841 13.4932 12.841H7.91548V6.68907H13.4932C15.749 6.68907 17.2253 7.67345 17.2253 9.68304ZM17.8405 21.5357C17.8405 23.4633 16.4871 24.7347 13.9854 24.7347H7.91548V18.3367H13.9854C16.4051 18.3367 17.8405 19.5671 17.8405 21.5357ZM83.789 13.9074C81.9434 10.0521 78.4983 7.91943 73.2898 7.91943C67.1378 7.91943 61.6421 11.7747 61.6421 19.444C61.6421 26.9083 66.4816 31.0507 73.2077 31.0507C77.9241 31.0507 81.9023 29.164 83.789 25.1037L78.3753 22.3149C77.391 24.1195 75.8736 25.2679 73.4538 25.2679C70.3368 25.2679 68.3272 23.0532 68.3272 19.444C68.3272 15.8349 70.6239 13.6612 73.4128 13.6612C75.5864 13.6612 77.227 14.6456 78.2522 16.7783L83.789 13.9074ZM182.917 13.9074C181.071 10.0521 177.626 7.91943 172.417 7.91943C166.265 7.91943 160.77 11.7747 160.77 19.444C160.77 26.9083 165.609 31.0507 172.335 31.0507C177.052 31.0507 181.03 29.164 182.917 25.1037L177.503 22.3149C176.519 24.1195 175.001 25.2679 172.581 25.2679C169.464 25.2679 167.455 23.0532 167.455 19.444C167.455 15.8349 169.752 13.6612 172.54 13.6612C174.714 13.6612 176.355 14.6456 177.38 16.7783L182.917 13.9074ZM126.524 30.4765L120.905 20.5513H116.599V30.4765H109.668V0.947266H122.177C128.944 0.947266 133.66 4.18737 133.66 10.5442C133.66 14.6045 131.651 17.4754 128.083 19.239L134.563 30.4765H126.524ZM116.64 14.6866H121.808C125.007 14.6866 126.565 12.882 126.565 10.7494C126.565 8.20654 125.089 6.81214 121.808 6.81214H116.64V14.6866ZM60.5348 30.1073V25.4729C60.2477 25.5549 59.8375 25.637 59.3864 25.637C58.5251 25.637 58.0739 25.1858 58.0739 24.4066V16.7371C58.0739 10.9953 54.2188 7.96041 47.8618 7.96041C43.7196 7.96041 40.1925 9.47788 37.9778 11.4465L41.71 15.6299C43.1863 14.3174 45.155 13.4972 47.0826 13.4972C50.0354 13.4972 51.43 14.9737 51.43 17.3935V18.0906C50.0354 17.7625 48.272 17.4344 46.1393 17.4344C40.7666 17.4344 37.2805 20.0182 37.2805 24.2835C37.2805 28.6719 40.1925 30.9686 44.7038 30.9686C47.7799 30.9686 50.5277 29.6973 51.9631 28.0567C52.8244 30.2303 54.7109 30.8046 56.5565 30.8046C57.828 30.8455 59.3045 30.6405 60.5348 30.1073ZM51.471 23.1762C51.471 25.1858 49.5433 26.4983 47.3287 26.4983C45.2371 26.4983 44.2117 25.4319 44.2117 23.9555C44.2117 22.397 45.3601 21.2486 47.6978 21.2486C49.1333 21.2486 50.4046 21.4947 51.471 21.7407V23.1762ZM206.95 30.4765L199.035 16.7371L206.458 8.65768H198.994L191.16 17.3523V0.988389H184.475V30.5174H191.16V25.1858L194.359 21.7818L199.363 30.5174H206.95V30.4765ZM107.904 30.4765L99.989 16.7371L107.412 8.65768H99.866L92.1146 17.3523V0.988389H85.4295V30.5174H92.1146V25.1858L95.3136 21.7818L100.317 30.5174H107.904V30.4765ZM211.051 26.3752C212.446 26.3752 213.266 27.2364 213.266 28.5488C213.266 29.8613 212.446 30.7225 211.051 30.7225C209.657 30.7225 208.837 29.8613 208.837 28.5488C208.837 27.2364 209.657 26.3752 211.051 26.3752ZM211.051 30.4355C212.159 30.4355 212.897 29.7792 212.897 28.5488C212.897 27.3185 212.118 26.6623 211.051 26.6623C209.944 26.6623 209.206 27.3185 209.206 28.5488C209.165 29.8203 209.944 30.4355 211.051 30.4355ZM210.19 27.4415H211.092C211.626 27.4415 211.913 27.7286 211.913 28.1387C211.913 28.5079 211.749 28.7129 211.461 28.8359L211.872 29.6152H211.461L211.092 28.918H210.6V29.6152H210.19V27.4415ZM210.6 27.7696V28.5488H211.051C211.338 28.5488 211.502 28.4669 211.502 28.1798C211.502 27.9336 211.38 27.8106 211.092 27.8106H210.6V27.7696Z" fill="white"/>
</svg>
