<svg width="140" height="38" viewBox="0 0 140 38" fill="none" xmlns="http://www.w3.org/2000/svg">
<g clip-path="url(#clip0_870_25522)">
<path d="M75.3839 18.8794L56.5488 0V37.7145L75.3839 18.8794Z" fill="#DB0011"/>
<path d="M37.714 18.8794L56.5491 0H18.8789L37.714 18.8794Z" fill="#DB0011"/>
<path d="M0 18.8794L18.8794 37.7145V0L0 18.8794Z" fill="#DB0011"/>
<path d="M37.714 18.8789L18.8789 37.714H56.5491L37.714 18.8789Z" fill="#DB0011"/>
<path d="M91.9161 19.9871H85.0912V26.7234H81.6787V10.9463H85.0912V17.4167H91.9161V10.9463H95.3286V26.7234H91.9161V19.9871Z" fill="white"/>
<path d="M103.571 27.033C100.159 27.033 97.3666 25.6591 97.3223 21.8921H100.735C100.779 23.5762 101.754 24.5955 103.615 24.5955C104.989 24.5955 106.585 23.8864 106.585 22.3353C106.585 21.0944 105.521 20.7398 103.748 20.208L102.596 19.8978C100.114 19.1887 97.6325 18.2137 97.6325 15.3774C97.6325 11.8763 100.912 10.6797 103.881 10.6797C106.939 10.6797 109.598 11.7433 109.643 15.2444H106.23C106.097 13.8263 105.255 12.9842 103.66 12.9842C102.374 12.9842 101.134 13.649 101.134 15.0672C101.134 16.2194 102.197 16.574 104.413 17.283L105.743 17.6819C108.446 18.5239 110.174 19.4546 110.174 22.1137C110.13 25.6591 106.673 27.033 103.571 27.033Z" fill="white"/>
<path d="M112.079 10.9906H117.575C118.594 10.9463 119.657 10.9906 120.677 11.1679C122.582 11.611 124.045 12.8519 124.045 14.9792C124.045 17.0178 122.76 18.0371 120.898 18.5246C123.026 18.9235 124.621 19.9871 124.621 22.336C124.621 25.9257 121.076 26.7234 118.328 26.7234H112.123L112.079 10.9906ZM117.575 17.5496C119.081 17.5496 120.632 17.2394 120.632 15.4224C120.632 13.7826 119.214 13.3394 117.796 13.3394H115.403V17.5496H117.575ZM117.885 24.3746C119.48 24.3746 121.031 24.02 121.031 22.0701C121.031 20.1201 119.702 19.7655 118.062 19.7655H115.359V24.3746H117.885Z" fill="white"/>
<path d="M133.486 27.0333C128.389 27.0333 126.129 23.7981 126.129 18.9675C126.129 14.1369 128.655 10.6357 133.663 10.6357C136.81 10.6357 139.867 12.0539 139.956 15.5993H136.411C136.233 14.0039 135.17 13.2062 133.663 13.2062C130.561 13.2062 129.63 16.53 129.63 19.0561C129.63 21.5822 130.561 24.5072 133.53 24.5072C135.081 24.5072 136.233 23.6652 136.455 22.0697H140C139.646 25.7038 136.765 27.0333 133.486 27.0333Z" fill="white"/>
</g>
<defs>
<clipPath id="clip0_870_25522">
<rect width="140" height="37.6702" fill="white"/>
</clipPath>
</defs>
</svg>
