<svg width="20" height="20" viewBox="0 0 20 20" fill="none" xmlns="http://www.w3.org/2000/svg">
<path d="M3.74967 13.75C2.49967 14.8 2.08301 17.9167 2.08301 17.9167C2.08301 17.9167 5.19967 17.5 6.24967 16.25C6.84134 15.55 6.83301 14.475 6.17467 13.825C5.85076 13.5159 5.42409 13.3372 4.97653 13.3234C4.52897 13.3095 4.09207 13.4615 3.74967 13.75Z" stroke="white" stroke-opacity="0.75" stroke-width="1.66667" stroke-linecap="round" stroke-linejoin="round"/>
<path d="M18.3389 0.83374C18.7967 0.836991 19.1669 1.20888 19.167 1.66675C19.1669 4.00896 18.5082 8.0896 14.2871 11.1804C14.3581 11.4783 14.4412 11.8701 14.4971 12.3035C14.558 12.7761 14.5927 13.3208 14.543 13.8562C14.4939 14.3844 14.3566 14.966 14.0264 15.4617V15.4626C13.4607 16.3082 12.3928 16.7987 11.6475 17.0691C11.2472 17.2143 10.8766 17.3177 10.6074 17.3845C10.4727 17.4179 10.3612 17.4431 10.2822 17.4597C10.243 17.468 10.211 17.4739 10.1885 17.4783C10.1775 17.4804 10.1677 17.4829 10.1611 17.4841C10.1582 17.4847 10.1553 17.4848 10.1533 17.4851L10.1504 17.4861H10.1484C9.90547 17.5301 9.65538 17.4637 9.46582 17.3054C9.27633 17.1471 9.16699 16.9127 9.16699 16.6658V12.8455L7.1543 10.8328H3.33301C3.08604 10.8328 2.85169 10.7235 2.69336 10.5339C2.53514 10.3444 2.46876 10.0942 2.5127 9.85132V9.85034H2.51367V9.84644C2.51408 9.84444 2.51506 9.84164 2.51562 9.83862C2.51686 9.83201 2.51834 9.82238 2.52051 9.81128C2.52491 9.78877 2.53174 9.75691 2.54004 9.71753C2.55669 9.63859 2.58084 9.52709 2.61426 9.39233C2.68104 9.12314 2.78451 8.75258 2.92969 8.35229C3.20009 7.60691 3.69049 6.53909 4.53613 5.97339H4.53711C5.03285 5.64302 5.6153 5.50588 6.14355 5.45679C6.67869 5.40714 7.22285 5.44182 7.69531 5.50269C8.13306 5.55912 8.52906 5.64121 8.82812 5.71265C9.8372 4.28856 11.1581 3.1093 12.6924 2.26538C14.4214 1.31447 16.3657 0.821502 18.3389 0.83374ZM12.7822 12.1238C12.1504 12.4726 11.4999 12.7866 10.833 13.0632V15.5828C10.9125 15.5568 10.9961 15.5328 11.0791 15.5027C11.7981 15.2418 12.3981 14.8984 12.6406 14.5359C12.7595 14.3567 12.8476 14.08 12.8828 13.7019C12.9173 13.3298 12.8963 12.9163 12.8447 12.5164C12.8272 12.3805 12.8045 12.249 12.7822 12.1238ZM17.4658 2.53296C16.0766 2.64573 14.7231 3.05058 13.4961 3.72534C12.0162 4.53926 10.7686 5.71826 9.87305 7.15015L9.86816 7.15796C9.3303 7.99805 8.86644 8.88281 8.47949 9.80151L10.2002 11.5222C11.1281 11.137 12.0228 10.6749 12.873 10.1384C16.3979 7.77308 17.2954 4.67901 17.4658 2.53296ZM6.29785 7.11597C5.91869 7.15121 5.6411 7.24078 5.46191 7.36011C5.09987 7.60317 4.75762 8.20247 4.49707 8.92065C4.46691 9.00381 4.44203 9.08709 4.41602 9.16675H6.93848C7.21874 8.49983 7.53605 7.8493 7.88965 7.21851C7.76013 7.1953 7.62347 7.17321 7.48242 7.15503C7.08276 7.10354 6.66974 7.0815 6.29785 7.11597Z" fill="white" fill-opacity="0.75"/>
</svg>
