<svg width="20" height="20" viewBox="0 0 20 20" fill="none" xmlns="http://www.w3.org/2000/svg">
<path d="M17.5 1.66699C17.5789 1.667 17.6552 1.67777 17.7275 1.69824C17.7311 1.69925 17.7347 1.70012 17.7383 1.70117C17.7586 1.70722 17.7782 1.71513 17.7979 1.72266C17.804 1.72501 17.8103 1.72699 17.8164 1.72949C17.8566 1.74599 17.8949 1.76578 17.9316 1.78809C17.9878 1.82213 18.0413 1.86263 18.0898 1.91113C18.1801 2.0015 18.2441 2.10787 18.2842 2.2207C18.2888 2.23367 18.2939 2.24651 18.2979 2.25977C18.3232 2.34433 18.335 2.43199 18.333 2.51953V7.5C18.333 7.96022 17.9602 8.33297 17.5 8.33301C17.0398 8.33301 16.667 7.96024 16.667 7.5V4.51172L12.2559 8.92285C11.9305 9.24784 11.4035 9.24782 11.0781 8.92285C10.7527 8.59741 10.7527 8.06958 11.0781 7.74414L15.4893 3.33301H12.5C12.0398 3.33301 11.667 2.96024 11.667 2.5C11.667 2.03976 12.0398 1.66699 12.5 1.66699H17.5Z" fill="white" fill-opacity="0.75"/>
<path d="M7.74414 11.0781C8.06958 10.7527 8.59741 10.7527 8.92285 11.0781C9.2477 11.4035 9.2478 11.9306 8.92285 12.2559L4.51172 16.667H7.5C7.96024 16.667 8.33301 17.0398 8.33301 17.5C8.33297 17.9602 7.96022 18.333 7.5 18.333H2.5C2.45778 18.333 2.41651 18.3283 2.37598 18.3223C2.362 18.3202 2.34786 18.3192 2.33398 18.3164C2.31976 18.3135 2.30594 18.3093 2.29199 18.3057C2.28129 18.3029 2.27037 18.301 2.25977 18.2979C2.24651 18.2939 2.23367 18.2888 2.2207 18.2842C2.13241 18.2528 2.04835 18.2066 1.97266 18.1445C1.96516 18.1384 1.95844 18.1314 1.95117 18.125C1.93792 18.1133 1.9238 18.1025 1.91113 18.0898C1.86268 18.0414 1.82211 17.9877 1.78809 17.9316C1.71159 17.8057 1.667 17.6582 1.66699 17.5V12.5C1.66699 12.0398 2.03976 11.667 2.5 11.667C2.96024 11.667 3.33301 12.0398 3.33301 12.5V15.4893L7.74414 11.0781Z" fill="white" fill-opacity="0.75"/>
</svg>
