<svg width="20" height="20" viewBox="0 0 20 20" fill="none" xmlns="http://www.w3.org/2000/svg">
<path d="M1.66699 5.00008C2.16699 5.41675 2.66699 5.83341 3.75033 5.83341C5.83366 5.83341 5.83366 4.16675 7.91699 4.16675C10.0837 4.16675 9.91699 5.83341 12.0837 5.83341C14.167 5.83341 14.167 4.16675 16.2503 4.16675C17.3337 4.16675 17.8337 4.58341 18.3337 5.00008" stroke="white" stroke-opacity="0.75" stroke-width="1.66667" stroke-linecap="round" stroke-linejoin="round"/>
<path d="M1.66699 10.0001C2.16699 10.4167 2.66699 10.8334 3.75033 10.8334C5.83366 10.8334 5.83366 9.16675 7.91699 9.16675C10.0837 9.16675 9.91699 10.8334 12.0837 10.8334C14.167 10.8334 14.167 9.16675 16.2503 9.16675C17.3337 9.16675 17.8337 9.58341 18.3337 10.0001" stroke="white" stroke-opacity="0.75" stroke-width="1.66667" stroke-linecap="round" stroke-linejoin="round"/>
<path d="M1.66699 15.0001C2.16699 15.4167 2.66699 15.8334 3.75033 15.8334C5.83366 15.8334 5.83366 14.1667 7.91699 14.1667C10.0837 14.1667 9.91699 15.8334 12.0837 15.8334C14.167 15.8334 14.167 14.1667 16.2503 14.1667C17.3337 14.1667 17.8337 14.5834 18.3337 15.0001" stroke="white" stroke-opacity="0.75" stroke-width="1.66667" stroke-linecap="round" stroke-linejoin="round"/>
</svg>
