<svg width="22" height="17" viewBox="0 0 22 17" fill="none" xmlns="http://www.w3.org/2000/svg">
<path d="M19.2857 8.73884L15.5357 12.4888C13.6607 14.3973 10.5804 14.3973 8.70536 12.4888C7.03125 10.8147 6.79688 8.20313 8.16964 6.26116L8.20313 6.22768C8.57143 5.72545 9.24107 5.625 9.70982 5.95982C10.1786 6.29464 10.3125 6.96429 9.9442 7.46652L9.91072 7.5C9.14063 8.57143 9.27455 10.0446 10.2121 10.9821C11.25 12.0536 12.9576 12.0536 14.029 10.9821L17.779 7.23214C18.8504 6.16071 18.8504 4.45313 17.779 3.41518C16.8415 2.47768 15.3683 2.34375 14.2969 3.11384L14.2634 3.14732C13.7612 3.51563 13.0915 3.3817 12.7567 2.91295C12.4219 2.4442 12.5223 1.77455 12.9911 1.40625L13.058 1.37277C15 4.69387e-07 17.6116 0.234375 19.2857 1.90848C21.1942 3.78348 21.1942 6.86384 19.2857 8.73884ZM1.90848 7.96875L5.65848 4.18527C7.56697 2.31027 10.6138 2.31027 12.5223 4.18527C14.1964 5.85938 14.3973 8.50446 13.0246 10.4464L12.9911 10.4799C12.6563 10.9821 11.9531 11.0826 11.4844 10.7478C11.0156 10.4129 10.8817 9.7433 11.25 9.24107L11.2835 9.20759C12.0536 8.10268 11.9196 6.66295 10.9821 5.72545C9.9442 4.65402 8.23661 4.65402 7.16518 5.72545L3.41518 9.47545C2.37723 10.5134 2.37723 12.221 3.41518 13.2924C4.35268 14.2299 5.82589 14.3638 6.89732 13.5938L6.9308 13.5603C7.43304 13.192 8.10268 13.3259 8.4375 13.7946C8.77232 14.2634 8.67188 14.933 8.20313 15.3013L8.13616 15.3348C6.22768 16.7076 3.58259 16.4732 1.90848 14.7991C1.63168e-06 12.9241 1.63168e-06 9.84375 1.90848 7.96875Z" fill="white"/>
</svg>
