<svg width="20" height="20" viewBox="0 0 20 20" fill="none" xmlns="http://www.w3.org/2000/svg">
<path d="M9.0752 1.97534C9.59475 1.76845 10.1666 1.74311 10.6992 1.89819L10.9258 1.97534L10.9268 1.97632L17.5928 4.64233H17.5918C18.0549 4.82675 18.4528 5.14546 18.7334 5.55737C19.014 5.96936 19.1649 6.45638 19.167 6.95483V16.6667C19.1669 17.3296 18.9033 17.9656 18.4346 18.4343C17.9657 18.9031 17.33 19.1667 16.667 19.1667H3.33398C2.67094 19.1667 2.03427 18.9032 1.56543 18.4343C1.09687 17.9656 0.83404 17.3295 0.833984 16.6667V6.95483C0.83606 6.45638 0.986983 5.96936 1.26758 5.55737C1.54796 5.1459 1.94475 4.8268 2.40723 4.64233L9.07422 1.97632L9.0752 1.97534ZM10.3086 3.52319C10.1109 3.44458 9.89012 3.44554 9.69238 3.52417L9.69141 3.52319L3.02637 6.19019L3.02539 6.19116C2.87111 6.25262 2.73806 6.35862 2.64453 6.49585C2.55112 6.63308 2.50073 6.79566 2.5 6.96167V16.6667C2.50006 16.8875 2.58814 17.0994 2.74414 17.2556C2.90042 17.4119 3.11297 17.4998 3.33398 17.4998H4.16699V8.33276C4.16729 7.87278 4.53995 7.49976 5 7.49976H15C15.4601 7.49976 15.8327 7.87278 15.833 8.33276V17.4998H16.667C16.888 17.4998 17.0996 17.4118 17.2559 17.2556C17.412 17.0994 17.4999 16.8876 17.5 16.6667V6.96167L17.4902 6.83765C17.4713 6.71574 17.4255 6.59867 17.3555 6.49585C17.262 6.35876 17.1297 6.25262 16.9756 6.19116L16.9746 6.19019L10.3086 3.52319ZM5.83301 17.4998H14.167V15.8328H5.83301V17.4998ZM5.83301 14.1667H14.167V12.4998H5.83301V14.1667ZM5.83301 10.8337H14.167V9.16577H5.83301V10.8337Z" fill="white"/>
</svg>
