<svg width="24" height="24" viewBox="0 0 24 24" fill="none" xmlns="http://www.w3.org/2000/svg">
<path d="M15.3809 2.70605C16.053 2.70607 16.6975 2.973 17.1729 3.44824C17.6481 3.92351 17.9159 4.56811 17.916 5.24023V8.62109H18.7598C19.432 8.62109 20.0774 8.88792 20.5527 9.36328C21.0278 9.83852 21.2948 10.4833 21.2949 11.1553V18.7598C21.2948 19.4317 21.0277 20.0766 20.5527 20.5518C20.0774 21.027 19.4319 21.2949 18.7598 21.2949H17.0703C17.0644 21.2949 17.0586 21.2941 17.0527 21.2939H5.24219C4.57008 21.2938 3.92546 21.027 3.4502 20.5518C2.97494 20.0765 2.70812 19.4319 2.70801 18.7598V13.6895C2.70811 13.0173 2.97493 12.3727 3.4502 11.8975C3.92546 11.4222 4.57007 11.1554 5.24219 11.1553H6.08691V5.24023C6.08701 4.56811 6.35383 3.92351 6.8291 3.44824C7.30437 2.97297 7.94897 2.70616 8.62109 2.70605H15.3809ZM17.916 19.6045H18.7598C18.9837 19.6045 19.199 19.5156 19.3574 19.3574C19.5158 19.1991 19.6053 18.9837 19.6055 18.7598V11.1553C19.6054 10.9315 19.5156 10.7169 19.3574 10.5586C19.199 10.4001 18.9839 10.3105 18.7598 10.3105H17.916V19.6045ZM5.24219 12.8447C5.01824 12.8448 4.80387 12.9344 4.64551 13.0928C4.48714 13.2511 4.39756 13.4655 4.39746 13.6895V18.7598C4.39758 18.9837 4.48716 19.1981 4.64551 19.3564C4.80387 19.5148 5.01825 19.6044 5.24219 19.6045H6.08691V12.8447H5.24219ZM8.62109 4.39551C8.39714 4.39561 8.18278 4.48519 8.02441 4.64355C7.86605 4.80192 7.77647 5.01629 7.77637 5.24023V11.9785C7.77655 11.9857 7.77734 11.9928 7.77734 12C7.77734 12.0072 7.77655 12.0143 7.77637 12.0215V19.6045H16.2256V5.24023C16.2255 5.01644 16.1367 4.80189 15.9785 4.64355C15.8201 4.48512 15.6049 4.39552 15.3809 4.39551H8.62109Z" fill="white"/>
<path d="M10.3096 6.93042H13.6892H10.3096Z" fill="white"/>
<path d="M10.3096 6.93042H13.6892" stroke="white" stroke-width="1.68983" stroke-linecap="round" stroke-linejoin="round"/>
<path d="M10.3096 10.3101H13.6892H10.3096Z" fill="white"/>
<path d="M10.3096 10.3101H13.6892" stroke="white" stroke-width="1.68983" stroke-linecap="round" stroke-linejoin="round"/>
<path d="M10.3096 13.6899H13.6892H10.3096Z" fill="white"/>
<path d="M10.3096 13.6899H13.6892" stroke="white" stroke-width="1.68983" stroke-linecap="round" stroke-linejoin="round"/>
<path d="M10.3096 17.0696H13.6892H10.3096Z" fill="white"/>
<path d="M10.3096 17.0696H13.6892" stroke="white" stroke-width="1.68983" stroke-linecap="round" stroke-linejoin="round"/>
</svg>
