<svg width="15" height="15" viewBox="0 0 15 15" fill="none" xmlns="http://www.w3.org/2000/svg">
<path d="M6.42815 1.07132C6.42815 0.502128 6.8969 -0.000104189 7.49958 -0.000104189H9.64244C10.2116 -0.000104189 10.7139 0.502128 10.7139 1.07132V3.21418C10.7139 3.81686 10.2116 4.28561 9.64244 4.28561H7.49958C6.8969 4.28561 6.42815 3.81686 6.42815 3.21418V1.07132ZM2.74512 5.85927L4.62012 4.78784C5.12235 4.51998 5.79199 4.6874 6.05985 5.18963L7.13128 7.06463C7.43262 7.56686 7.26521 8.20302 6.76297 8.50436L4.88797 9.57579C4.38574 9.87713 3.7161 9.70972 3.44824 9.20748L2.37681 7.33248C2.07547 6.83025 2.24288 6.16061 2.74512 5.85927ZM9.64244 5.35704H11.7853C12.3545 5.35704 12.8567 5.85927 12.8567 6.42847V8.57132C12.8567 9.174 12.3545 9.64275 11.7853 9.64275H9.64244C9.03976 9.64275 8.57101 9.174 8.57101 8.57132V6.42847C8.57101 5.85927 9.03976 5.35704 9.64244 5.35704ZM11.7853 10.7142H13.9282C14.4973 10.7142 14.9996 11.2164 14.9996 11.7856V13.9285C14.9996 14.5311 14.4973 14.9999 13.9282 14.9999H11.7853C11.1826 14.9999 10.7139 14.5311 10.7139 13.9285V11.7856C10.7139 11.2164 11.1826 10.7142 11.7853 10.7142ZM5.35672 11.7856C5.35672 11.2164 5.82547 10.7142 6.42815 10.7142H8.57101C9.14021 10.7142 9.64244 11.2164 9.64244 11.7856V13.9285C9.64244 14.5311 9.14021 14.9999 8.57101 14.9999H6.42815C5.82547 14.9999 5.35672 14.5311 5.35672 13.9285V11.7856ZM1.07101 10.7142H3.21387C3.78306 10.7142 4.2853 11.2164 4.2853 11.7856V13.9285C4.2853 14.5311 3.78306 14.9999 3.21387 14.9999H1.07101C0.468331 14.9999 -0.000418663 14.5311 -0.000418663 13.9285V11.7856C-0.000418663 11.2164 0.468331 10.7142 1.07101 10.7142Z" fill="white"/>
</svg>
