<svg width="20" height="15" viewBox="0 0 20 15" fill="none" xmlns="http://www.w3.org/2000/svg">
<path d="M9.67634 -0.000104189C12.3549 -0.000104189 14.5312 1.23874 16.1049 2.71195C17.6786 4.15168 18.7165 5.89275 19.2187 7.09811C19.3192 7.36597 19.3192 7.66731 19.2187 7.93516C18.7165 9.10704 17.6786 10.8481 16.1049 12.3213C14.5312 13.7945 12.3549 14.9999 9.67634 14.9999C6.96429 14.9999 4.78795 13.7945 3.21429 12.3213C1.64063 10.8481 0.602679 9.10704 0.100447 7.93516C4.09782e-07 7.66731 4.09782e-07 7.36597 0.100447 7.09811C0.602679 5.89275 1.64063 4.15168 3.21429 2.71195C4.78795 1.23874 6.96429 -0.000104189 9.67634 -0.000104189ZM4.85491 7.4999C4.85491 9.24097 5.75893 10.8146 7.26563 11.6852C8.73884 12.5557 10.5804 12.5557 12.0871 11.6852C13.5603 10.8146 14.4978 9.24097 14.4978 7.4999C14.4978 5.79231 13.5603 4.21865 12.0871 3.34811C10.5804 2.47757 8.73884 2.47757 7.26563 3.34811C5.75893 4.21865 4.85491 5.79231 4.85491 7.4999ZM9.67634 5.35704C9.67634 5.12266 9.60938 4.92177 9.54241 4.6874C9.47545 4.51998 9.60938 4.28561 9.81027 4.28561C11.1496 4.35257 12.3884 5.29007 12.7567 6.69632C13.2254 8.40391 12.221 10.145 10.4799 10.6137C8.77232 11.0825 6.99777 10.0445 6.5625 8.33695C6.49554 8.10257 6.46205 7.8682 6.46205 7.66731C6.42857 7.46641 6.66295 7.33248 6.83036 7.39945C7.06473 7.46641 7.26563 7.4999 7.53348 7.4999C8.70536 7.4999 9.67634 6.5624 9.67634 5.35704Z" fill="white"/>
</svg>
