<svg width="20" height="20" viewBox="0 0 20 20" fill="none" xmlns="http://www.w3.org/2000/svg">
<path d="M2.25781 16.1945C2.25781 16.6052 2.42097 16.9991 2.71138 17.2895C3.00179 17.5799 3.39568 17.743 3.80638 17.743H16.195C16.6057 17.743 16.9995 17.5799 17.29 17.2895C17.5804 16.9991 17.7435 16.6052 17.7435 16.1945V6.90304L12.3235 10.7745V6.90304L6.90353 10.7745V3.8059C6.90353 3.39519 6.74037 3.0013 6.44996 2.71089C6.15955 2.42048 5.76566 2.25732 5.35496 2.25732H3.80638C3.39568 2.25732 3.00179 2.42048 2.71138 2.71089C2.42097 3.0013 2.25781 3.39519 2.25781 3.8059V16.1945Z" stroke="white" stroke-width="1.54857" stroke-linecap="round" stroke-linejoin="round"/>
<path d="M13.8721 14.6455H14.6464" stroke="white" stroke-width="1.54857" stroke-linecap="round" stroke-linejoin="round"/>
<path d="M10 14.6455H10.7743" stroke="white" stroke-width="1.54857" stroke-linecap="round" stroke-linejoin="round"/>
<path d="M6.12793 14.6455H6.90222" stroke="white" stroke-width="1.54857" stroke-linecap="round" stroke-linejoin="round"/>
</svg>
