<svg width="20" height="20" viewBox="0 0 20 20" fill="none" xmlns="http://www.w3.org/2000/svg">
<path d="M3.33325 11.6665C3.17555 11.667 3.02094 11.6228 2.88737 11.539C2.75381 11.4551 2.64677 11.3351 2.5787 11.1929C2.51063 11.0506 2.48432 10.892 2.50283 10.7354C2.52133 10.5788 2.5839 10.4306 2.68325 10.3081L10.9332 1.80814C10.9951 1.73671 11.0795 1.68844 11.1724 1.67125C11.2653 1.65407 11.3613 1.66899 11.4447 1.71356C11.528 1.75814 11.5937 1.82972 11.631 1.91657C11.6683 2.00341 11.675 2.10035 11.6499 2.19148L10.0499 7.20814C10.0027 7.33441 9.98689 7.47024 10.0037 7.60398C10.0206 7.73772 10.0696 7.86538 10.1467 7.976C10.2237 8.08662 10.3264 8.17691 10.446 8.23911C10.5656 8.30132 10.6984 8.33358 10.8332 8.33314H16.6666C16.8243 8.33261 16.9789 8.37682 17.1124 8.46066C17.246 8.5445 17.3531 8.66451 17.4211 8.80676C17.4892 8.94901 17.5155 9.10765 17.497 9.26426C17.4785 9.42087 17.4159 9.56901 17.3166 9.69148L9.06658 18.1915C9.00469 18.2629 8.92036 18.3112 8.82743 18.3284C8.73449 18.3456 8.63848 18.3306 8.55514 18.2861C8.4718 18.2415 8.40609 18.1699 8.3688 18.0831C8.33151 17.9962 8.32485 17.8993 8.34991 17.8081L9.94991 12.7915C9.99709 12.6652 10.0129 12.5294 9.99609 12.3956C9.97924 12.2619 9.9302 12.1342 9.85317 12.0236C9.77614 11.913 9.67343 11.8227 9.55385 11.7605C9.43426 11.6983 9.30137 11.666 9.16658 11.6665H3.33325Z" stroke="white" stroke-width="1.66667" stroke-linecap="round" stroke-linejoin="round"/>
</svg>
