<svg width="20" height="20" viewBox="0 0 20 20" fill="none" xmlns="http://www.w3.org/2000/svg">
<path d="M17.4999 10.0002C17.9599 10.0002 18.3374 9.62601 18.2915 9.16851C18.0994 7.25532 17.2516 5.46743 15.8918 4.10795C14.532 2.74846 12.7439 1.90104 10.8307 1.70934C10.3724 1.66351 9.99902 2.04101 9.99902 2.50101V9.16768C9.99902 9.38869 10.0868 9.60065 10.2431 9.75693C10.3994 9.91321 10.6113 10.001 10.8324 10.001L17.4999 10.0002Z" stroke="white" stroke-width="1.66667" stroke-linecap="round" stroke-linejoin="round"/>
<path d="M17.6747 13.2417C17.1445 14.4955 16.3153 15.6002 15.2596 16.4595C14.2038 17.3187 12.9537 17.9063 11.6184 18.1707C10.2831 18.4352 8.90337 18.3685 7.59981 17.9766C6.29624 17.5846 5.10854 16.8793 4.14053 15.9223C3.17253 14.9653 2.4537 13.7857 2.04688 12.4867C1.64006 11.1877 1.55765 9.8088 1.80685 8.47059C2.05605 7.13238 2.62926 5.87559 3.47639 4.81009C4.32351 3.74459 5.41875 2.90283 6.66635 2.3584" stroke="white" stroke-width="1.66667" stroke-linecap="round" stroke-linejoin="round"/>
</svg>
